<?xml version="1.0" encoding="UTF-8" standalone="no"?>
<svg
   xmlns:dc="http://purl.org/dc/elements/1.1/"
   xmlns:cc="http://creativecommons.org/ns#"
   xmlns:rdf="http://www.w3.org/1999/02/22-rdf-syntax-ns#"
   xmlns:svg="http://www.w3.org/2000/svg"
   xmlns="http://www.w3.org/2000/svg"
   viewBox="0 0 1056 816"
   height="816"
   width="1056"
   xml:space="preserve"
   id="svg2"
   version="1.1"><metadata
     id="metadata8"><rdf:RDF><cc:Work
         rdf:about=""><dc:format>image/svg+xml</dc:format><dc:type
           rdf:resource="http://purl.org/dc/dcmitype/StillImage" /></cc:Work></rdf:RDF></metadata><defs
     id="defs6"><clipPath
       id="clipPath18"
       clipPathUnits="userSpaceOnUse"><path
         id="path16"
         d="M 0,612 H 792 V 0 H 0 Z" /></clipPath></defs><g
     transform="matrix(1.3333333,0,0,-1.3333333,0,816)"
     id="g10"><g
       id="g12"><g
         clip-path="url(#clipPath18)"
         id="g14"><g
           transform="translate(300.5283,428.6289)"
           id="g20"><path
             id="path22"
             style="fill:#3f3c3d;fill-opacity:1;fill-rule:nonzero;stroke:none"
             d="m 0,0 c -0.044,0 -0.087,0 -0.131,0.001 -2.761,0.072 -4.941,2.367 -4.87,5.128 0.471,18.266 13.866,33.794 31.852,36.921 2.721,0.471 5.31,-1.349 5.783,-4.07 0.472,-2.72 -1.349,-5.309 -4.07,-5.782 C 15.256,29.884 5.344,18.392 4.996,4.871 4.926,2.155 2.702,0 0,0" /></g><g
           transform="translate(283.9268,431.7529)"
           id="g24"><path
             id="path26"
             style="fill:#3f3c3d;fill-opacity:1;fill-rule:nonzero;stroke:none"
             d="m 0,0 c -0.132,0 -0.265,0.005 -0.398,0.016 -2.753,0.217 -4.809,2.625 -4.592,5.378 1.901,24.11 19.009,43.975 42.57,49.429 2.693,0.62 5.376,-1.053 5.999,-3.743 0.623,-2.69 -1.054,-5.376 -3.744,-5.999 C 20.543,40.615 6.536,24.35 4.979,4.607 4.772,1.988 2.583,0 0,0" /></g><g
           transform="translate(332.8359,420.9941)"
           id="g28"><path
             id="path30"
             style="fill:#3f3c3d;fill-opacity:1;fill-rule:evenodd;stroke:none"
             d="m 0,0 c -6.535,0 -11.833,5.298 -11.833,11.833 0,6.536 5.298,11.834 11.833,11.834 6.536,0 11.833,-5.298 11.833,-11.834 C 11.833,5.298 6.536,0 0,0 m 120.063,11.833 c 0,6.536 5.299,11.834 11.834,11.834 1.779,0 3.462,-0.381 4.976,-1.084 L 155.586,13.936 138.283,1.84 C 136.442,0.658 134.248,0 131.897,0 125.362,0 120.063,5.298 120.063,11.833 m 20.264,-56.26 c -6.205,7.659 -12.332,15.388 -18.26,23.263 l 1.516,-2.26 c -0.97,1.316 -1.901,2.646 -2.628,4.116 -1.325,2.684 -1.516,5.719 0.199,8.321 1.063,1.613 2.86,1.623 4.612,1.678 1.517,-0.336 3.091,-0.519 4.709,-0.519 5.265,0 10.089,1.88 13.844,5.002 l 29.14,20.558 -32.067,14.815 c -2.188,1.279 -4.618,2.188 -7.206,2.636 -1.186,0.231 -2.378,0.338 -3.562,0.318 -0.05,0.001 -0.099,0.004 -0.149,0.004 -2.364,0 -4.944,-0.448 -7.18,-1.193 -4.528,-1.509 -8.743,-5.185 -11.121,-9.247 -2.525,-4.312 -3.988,-9.334 -4.836,-14.232 -0.479,-2.767 -0.755,-5.583 -0.924,-8.386 -0.432,-7.165 0.594,-13.944 3.624,-20.487 0.808,-1.744 1.731,-3.433 2.741,-5.067 0.979,-1.582 2.019,-3.123 3.108,-4.63 1.288,-1.784 2.621,-3.536 3.965,-5.278 1.674,-2.17 3.412,-4.294 5.166,-6.401 1.847,-2.221 3.713,-4.426 5.564,-6.645 6.856,-8.22 13.605,-16.504 18.884,-25.88 16.276,-28.911 9.473,-59.739 -17.473,-79 -6.679,-4.774 -13.897,-8.569 -21.534,-11.532 -8.966,-3.478 -9.592,-3.07 -9.613,6.302 -0.051,22.801 -0.016,45.602 -0.016,68.402 0.006,23.083 0.064,69.248 0.064,69.248 l -0.001,0.938 h -0.008 c -0.045,2.731 -2.267,4.934 -5.008,4.934 -2.771,0 -5.017,-2.246 -5.017,-5.017 0,-0.039 0.011,-0.076 0.012,-0.115 -0.006,-0.257 -0.012,-0.516 -0.012,-0.766 0.064,-47.299 0.046,-94.597 0.041,-141.895 0,-1.125 -0.12,-2.25 -0.12,-3.374 0.004,-4.23 -2.977,-5.002 -6.233,-5.259 -4.45,-0.351 -4.031,3.018 -4.036,5.757 -0.047,24.494 -0.028,48.986 -0.028,73.481 -0.009,23.649 -0.047,47.298 0.03,70.948 0.001,0.372 -0.012,0.759 -0.024,1.144 0.001,0.032 0.01,0.062 0.01,0.094 0,2.779 -2.253,5.032 -5.031,5.032 -2.756,0 -4.989,-2.217 -5.026,-4.964 h -0.007 c 0.004,-8.87 0.061,-17.74 0.063,-26.608 0.009,-37.443 0.005,-74.885 0.001,-112.327 0,-2.533 -0.025,-5.066 -0.056,-7.599 -0.039,-3.326 -0.51,-6.193 -4.882,-6.343 -4.85,-0.166 -5.441,2.844 -5.437,6.588 0.015,15.765 -0.012,31.529 -0.019,47.295 -0.005,9.008 -0.001,18.017 -0.001,27.025 -10e-4,22.241 0.032,70.219 0.045,71.969 h -0.012 c -0.045,2.724 -2.26,4.921 -4.995,4.921 -2.735,0 -4.951,-2.197 -4.996,-4.921 H 50.14 v -0.08 c 0,-0.001 -10e-4,-0.002 -10e-4,-0.003 0,-0.001 10e-4,-0.002 10e-4,-0.003 -0.004,-3.229 0.029,-97 -0.029,-143.887 -0.005,-3.506 0.641,-8.067 -4.999,-7.782 -4.732,0.239 -5.486,3.696 -5.468,7.827 0.104,24.233 0.05,48.465 0.05,72.697 0,22.862 0.027,68.744 0.017,71.127 0,0.008 0.002,0.015 0.002,0.022 0,0.008 -0.003,0.015 -0.003,0.023 0,0.032 0,0.053 0,0.059 h -0.005 c -0.045,2.694 -2.235,4.866 -4.94,4.866 -2.706,0 -4.896,-2.172 -4.941,-4.866 h -0.011 c 0,-0.041 0.062,-47.48 0.062,-71.154 0.007,-22.832 -0.138,-45.664 0.096,-68.492 0.07,-6.707 -1.799,-8.565 -8.331,-5.943 -24.046,9.65 -42.715,24.06 -47.177,51.548 -2.32,14.296 1.35,27.403 8.221,39.777 5.919,10.661 14.003,19.744 21.69,29.111 6.804,8.29 13.046,16.865 17.394,26.849 3.026,6.951 3.823,15.132 3.037,22.63 -0.243,2.316 -0.721,4.62 -1.372,6.856 -0.988,3.391 -1.966,6.966 -3.501,10.156 -1.691,3.511 -4.375,6.553 -7.685,8.614 -1.302,0.81 -2.68,1.458 -4.135,1.943 -2.237,0.745 -4.817,1.193 -7.18,1.193 -0.051,0 -0.1,-0.003 -0.15,-0.004 -1.183,0.02 -2.375,-0.087 -3.561,-0.318 -10.197,-1.761 -17.956,-10.643 -17.956,-21.344 0,-11.966 9.7,-21.667 21.667,-21.667 1.617,0 3.192,0.183 4.708,0.519 1.752,-0.055 3.549,-0.065 4.612,-1.678 1.714,-2.602 1.524,-5.637 0.199,-8.321 -0.726,-1.47 -1.658,-2.8 -2.628,-4.116 -9.358,-12.695 -19.642,-24.73 -28.621,-37.677 -28.08,-40.49 -16.544,-85.581 27.341,-108.083 5.721,-2.932 11.761,-5.243 17.858,-7.931 -1.744,-2.748 -5.042,-4.635 -3.261,-8.224 1.73,-3.488 5.136,-3 8.166,-3.007 24.242,-0.042 48.483,-0.026 72.725,-0.004 2.831,0.004 5.851,-0.087 7.344,3.003 1.857,3.843 -1.29,5.517 -4.512,8.232 12.372,4.63 23.518,9.293 33.379,16.527 30.065,22.055 38.102,57.093 20.561,89.94 -5.076,9.506 -11.726,17.888 -18.476,26.221" /></g></g></g></g></svg>