  0
SECTION
  2
HEADER
  9
$ACADVER
  1
AC1009
  9
$EXTMIN
 10
0.0
 20
0.0
 30
0.0
  9
$EXTMAX
 10
1000.0
 20
1000.0
 30
0.0
  9
$FILLMODE
 70
 0
  9
$SPLFRAME
 70
 1
  0
ENDSEC
  0
SECTION
  2
TABLES
  0
TABLE
  2
LAYER
 70
1
  0
LAYER
  2
0
 70
     0
 62
     7
  6
CONTINUOUS
  0
ENDTAB
  0
ENDSEC
  0
SECTION
  2
ENTITIES
  0
POLYLINE
  8
0
 62
     8
 66
     1
 10
0
 20
0
 30
0.0
 70
     1
 40
0
 41
0
  0
VERTEX
  8
0
 10
4.17399
 20
5.95318
 30
0.0
 40
0
 41
0
  0
VERTEX
  8
0
 10
4.1735
 20
5.95318
 30
0.0
 40
0
 41
0
  0
VERTEX
  8
0
 10
4.17253
 20
5.95318
 30
0.0
 40
0
 41
0
  0
VERTEX
  8
0
 10
4.17219
 20
5.95318
 30
0.0
 40
0
 41
0
  0
VERTEX
  8
0
 10
4.16542
 20
5.9534
 30
0.0
 40
0
 41
0
  0
VERTEX
  8
0
 10
4.14529
 20
5.95936
 30
0.0
 40
0
 41
0
  0
VERTEX
  8
0
 10
4.12358
 20
5.97483
 30
0.0
 40
0
 41
0
  0
VERTEX
  8
0
 10
4.10926
 20
5.99729
 30
0.0
 40
0
 41
0
  0
VERTEX
  8
0
 10
4.10439
 20
6.01768
 30
0.0
 40
0
 41
0
  0
VERTEX
  8
0
 10
4.10454
 20
6.02442
 30
0.0
 40
0
 41
0
  0
VERTEX
  8
0
 10
4.10514
 20
6.04775
 30
0.0
 40
0
 41
0
  0
VERTEX
  8
0
 10
4.11518
 20
6.11751
 30
0.0
 40
0
 41
0
  0
VERTEX
  8
0
 10
4.14128
 20
6.20546
 30
0.0
 40
0
 41
0
  0
VERTEX
  8
0
 10
4.18153
 20
6.28674
 30
0.0
 40
0
 41
0
  0
VERTEX
  8
0
 10
4.23449
 20
6.35969
 30
0.0
 40
0
 41
0
  0
VERTEX
  8
0
 10
4.29889
 20
6.42279
 30
0.0
 40
0
 41
0
  0
VERTEX
  8
0
 10
4.37332
 20
6.47444
 30
0.0
 40
0
 41
0
  0
VERTEX
  8
0
 10
4.45643
 20
6.51313
 30
0.0
 40
0
 41
0
  0
VERTEX
  8
0
 10
4.52393
 20
6.53326
 30
0.0
 40
0
 41
0
  0
VERTEX
  8
0
 10
4.54693
 20
6.53722
 30
0.0
 40
0
 41
0
  0
VERTEX
  8
0
 10
4.55354
 20
6.53836
 30
0.0
 40
0
 41
0
  0
VERTEX
  8
0
 10
4.57449
 20
6.53646
 30
0.0
 40
0
 41
0
  0
VERTEX
  8
0
 10
4.59879
 20
6.52556
 30
0.0
 40
0
 41
0
  0
VERTEX
  8
0
 10
4.61724
 20
6.5064
 30
0.0
 40
0
 41
0
  0
VERTEX
  8
0
 10
4.62608
 20
6.48736
 30
0.0
 40
0
 41
0
  0
VERTEX
  8
0
 10
4.62728
 20
6.48068
 30
0.0
 40
0
 41
0
  0
VERTEX
  8
0
 10
4.62842
 20
6.47407
 30
0.0
 40
0
 41
0
  0
VERTEX
  8
0
 10
4.62646
 20
6.45318
 30
0.0
 40
0
 41
0
  0
VERTEX
  8
0
 10
4.61561
 20
6.42888
 30
0.0
 40
0
 41
0
  0
VERTEX
  8
0
 10
4.5964
 20
6.41043
 30
0.0
 40
0
 41
0
  0
VERTEX
  8
0
 10
4.57736
 20
6.40158
 30
0.0
 40
0
 41
0
  0
VERTEX
  8
0
 10
4.57075
 20
6.40039
 30
0.0
 40
0
 41
0
  0
VERTEX
  8
0
 10
4.5376
 20
6.39464
 30
0.0
 40
0
 41
0
  0
VERTEX
  8
0
 10
4.44228
 20
6.35394
 30
0.0
 40
0
 41
0
  0
VERTEX
  8
0
 10
4.33951
 20
6.26899
 30
0.0
 40
0
 41
0
  0
VERTEX
  8
0
 10
4.27056
 20
6.15483
 30
0.0
 40
0
 41
0
  0
VERTEX
  8
0
 10
4.24419
 20
6.05453
 30
0.0
 40
0
 41
0
  0
VERTEX
  8
0
 10
4.24338
 20
6.02083
 30
0.0
 40
0
 41
0
  0
VERTEX
  8
0
 10
4.24322
 20
6.01421
 30
0.0
 40
0
 41
0
  0
VERTEX
  8
0
 10
4.23736
 20
5.99436
 30
0.0
 40
0
 41
0
  0
VERTEX
  8
0
 10
4.22239
 20
5.97288
 30
0.0
 40
0
 41
0
  0
VERTEX
  8
0
 10
4.20053
 20
5.9585
 30
0.0
 40
0
 41
0
  0
VERTEX
  8
0
 10
4.18061
 20
5.95318
 30
0.0
 40
0
 41
0
  0
VERTEX
  8
0
 10
4.17399
 20
5.95318
 30
0.0
 40
0
 41
0
  0
SEQEND
 8
0
  0
POLYLINE
  8
0
 62
     8
 66
     1
 10
0
 20
0
 30
0.0
 70
     1
 40
0
 41
0
  0
VERTEX
  8
0
 10
3.94342
 20
5.99658
 30
0.0
 40
0
 41
0
  0
VERTEX
  8
0
 10
3.942
 20
5.99658
 30
0.0
 40
0
 41
0
  0
VERTEX
  8
0
 10
3.93832
 20
5.99681
 30
0.0
 40
0
 41
0
  0
VERTEX
  8
0
 10
3.93788
 20
5.99681
 30
0.0
 40
0
 41
0
  0
VERTEX
  8
0
 10
3.93115
 20
5.99735
 30
0.0
 40
0
 41
0
  0
VERTEX
  8
0
 10
3.91135
 20
6.00439
 30
0.0
 40
0
 41
0
  0
VERTEX
  8
0
 10
3.89051
 20
6.02094
 30
0.0
 40
0
 41
0
  0
VERTEX
  8
0
 10
3.87739
 20
6.04417
 30
0.0
 40
0
 41
0
  0
VERTEX
  8
0
 10
3.87358
 20
6.06478
 30
0.0
 40
0
 41
0
  0
VERTEX
  8
0
 10
3.87414
 20
6.0715
 30
0.0
 40
0
 41
0
  0
VERTEX
  8
0
 10
3.87651
 20
6.10238
 30
0.0
 40
0
 41
0
  0
VERTEX
  8
0
 10
3.89367
 20
6.19407
 30
0.0
 40
0
 41
0
  0
VERTEX
  8
0
 10
3.93158
 20
6.3094
 30
0.0
 40
0
 41
0
  0
VERTEX
  8
0
 10
3.98649
 20
6.4159
 30
0.0
 40
0
 41
0
  0
VERTEX
  8
0
 10
4.05692
 20
6.51193
 30
0.0
 40
0
 41
0
  0
VERTEX
  8
0
 10
4.14144
 20
6.59581
 30
0.0
 40
0
 41
0
  0
VERTEX
  8
0
 10
4.23861
 20
6.66585
 30
0.0
 40
0
 41
0
  0
VERTEX
  8
0
 10
4.34706
 20
6.72049
 30
0.0
 40
0
 41
0
  0
VERTEX
  8
0
 10
4.43522
 20
6.75103
 30
0.0
 40
0
 41
0
  0
VERTEX
  8
0
 10
4.46539
 20
6.75797
 30
0.0
 40
0
 41
0
  0
VERTEX
  8
0
 10
4.47194
 20
6.7595
 30
0.0
 40
0
 41
0
  0
VERTEX
  8
0
 10
4.49294
 20
6.75879
 30
0.0
 40
0
 41
0
  0
VERTEX
  8
0
 10
4.51779
 20
6.74924
 30
0.0
 40
0
 41
0
  0
VERTEX
  8
0
 10
4.53722
 20
6.73112
 30
0.0
 40
0
 41
0
  0
VERTEX
  8
0
 10
4.54715
 20
6.71262
 30
0.0
 40
0
 41
0
  0
VERTEX
  8
0
 10
4.54867
 20
6.706
 30
0.0
 40
0
 41
0
  0
VERTEX
  8
0
 10
4.55018
 20
6.69943
 30
0.0
 40
0
 41
0
  0
VERTEX
  8
0
 10
4.54943
 20
6.6785
 30
0.0
 40
0
 41
0
  0
VERTEX
  8
0
 10
4.53993
 20
6.6536
 30
0.0
 40
0
 41
0
  0
VERTEX
  8
0
 10
4.52175
 20
6.63411
 30
0.0
 40
0
 41
0
  0
VERTEX
  8
0
 10
4.50325
 20
6.62418
 30
0.0
 40
0
 41
0
  0
VERTEX
  8
0
 10
4.49669
 20
6.62267
 30
0.0
 40
0
 41
0
  0
VERTEX
  8
0
 10
4.472
 20
6.61697
 30
0.0
 40
0
 41
0
  0
VERTEX
  8
0
 10
4.39979
 20
6.59196
 30
0.0
 40
0
 41
0
  0
VERTEX
  8
0
 10
4.31104
 20
6.54725
 30
0.0
 40
0
 41
0
  0
VERTEX
  8
0
 10
4.23144
 20
6.4899
 30
0.0
 40
0
 41
0
  0
VERTEX
  8
0
 10
4.16222
 20
6.42122
 30
0.0
 40
0
 41
0
  0
VERTEX
  8
0
 10
4.10454
 20
6.34256
 30
0.0
 40
0
 41
0
  0
VERTEX
  8
0
 10
4.05963
 20
6.25537
 30
0.0
 40
0
 41
0
  0
VERTEX
  8
0
 10
4.0286
 20
6.16092
 30
0.0
 40
0
 41
0
  0
VERTEX
  8
0
 10
4.01454
 20
6.08583
 30
0.0
 40
0
 41
0
  0
VERTEX
  8
0
 10
4.01258
 20
6.06054
 30
0.0
 40
0
 41
0
  0
VERTEX
  8
0
 10
4.01204
 20
6.05414
 30
0.0
 40
0
 41
0
  0
VERTEX
  8
0
 10
4.00558
 20
6.03526
 30
0.0
 40
0
 41
0
  0
VERTEX
  8
0
 10
3.99035
 20
6.01497
 30
0.0
 40
0
 41
0
  0
VERTEX
  8
0
 10
3.96897
 20
6.00146
 30
0.0
 40
0
 41
0
  0
VERTEX
  8
0
 10
3.94976
 20
5.99658
 30
0.0
 40
0
 41
0
  0
VERTEX
  8
0
 10
3.94342
 20
5.99658
 30
0.0
 40
0
 41
0
  0
SEQEND
 8
0
  0
POLYLINE
  8
0
 62
     8
 66
     1
 10
0
 20
0
 30
0.0
 70
     1
 40
0
 41
0
  0
VERTEX
  8
0
 10
4.62272
 20
5.84711
 30
0.0
 40
0
 41
0
  0
VERTEX
  8
0
 10
4.60672
 20
5.84711
 30
0.0
 40
0
 41
0
  0
VERTEX
  8
0
 10
4.55871
 20
5.86008
 30
0.0
 40
0
 41
0
  0
VERTEX
  8
0
 10
4.50651
 20
5.89529
 30
0.0
 40
0
 41
0
  0
VERTEX
  8
0
 10
4.47131
 20
5.94754
 30
0.0
 40
0
 41
0
  0
VERTEX
  8
0
 10
4.45839
 20
5.99556
 30
0.0
 40
0
 41
0
  0
VERTEX
  8
0
 10
4.45839
 20
6.0115
 30
0.0
 40
0
 41
0
  0
VERTEX
  8
0
 10
4.45839
 20
6.0275
 30
0.0
 40
0
 41
0
  0
VERTEX
  8
0
 10
4.47131
 20
6.07553
 30
0.0
 40
0
 41
0
  0
VERTEX
  8
0
 10
4.50651
 20
6.12771
 30
0.0
 40
0
 41
0
  0
VERTEX
  8
0
 10
4.55871
 20
6.16292
 30
0.0
 40
0
 41
0
  0
VERTEX
  8
0
 10
4.60672
 20
6.17583
 30
0.0
 40
0
 41
0
  0
VERTEX
  8
0
 10
4.62272
 20
6.17583
 30
0.0
 40
0
 41
0
  0
VERTEX
  8
0
 10
4.63867
 20
6.17583
 30
0.0
 40
0
 41
0
  0
VERTEX
  8
0
 10
4.68668
 20
6.16292
 30
0.0
 40
0
 41
0
  0
VERTEX
  8
0
 10
4.73888
 20
6.12771
 30
0.0
 40
0
 41
0
  0
VERTEX
  8
0
 10
4.77408
 20
6.07553
 30
0.0
 40
0
 41
0
  0
VERTEX
  8
0
 10
4.78706
 20
6.0275
 30
0.0
 40
0
 41
0
  0
VERTEX
  8
0
 10
4.78706
 20
6.0115
 30
0.0
 40
0
 41
0
  0
VERTEX
  8
0
 10
4.78706
 20
5.99556
 30
0.0
 40
0
 41
0
  0
VERTEX
  8
0
 10
4.77408
 20
5.94754
 30
0.0
 40
0
 41
0
  0
VERTEX
  8
0
 10
4.73888
 20
5.89529
 30
0.0
 40
0
 41
0
  0
VERTEX
  8
0
 10
4.68668
 20
5.86008
 30
0.0
 40
0
 41
0
  0
VERTEX
  8
0
 10
4.63867
 20
5.84711
 30
0.0
 40
0
 41
0
  0
VERTEX
  8
0
 10
4.62272
 20
5.84711
 30
0.0
 40
0
 41
0
  0
SEQEND
 8
0
  0
POLYLINE
  8
0
 62
     8
 66
     1
 10
0
 20
0
 30
0.0
 70
     1
 40
0
 41
0
  0
VERTEX
  8
0
 10
6.29025
 20
6.0115
 30
0.0
 40
0
 41
0
  0
VERTEX
  8
0
 10
6.29025
 20
6.0275
 30
0.0
 40
0
 41
0
  0
VERTEX
  8
0
 10
6.30317
 20
6.07553
 30
0.0
 40
0
 41
0
  0
VERTEX
  8
0
 10
6.33838
 20
6.12771
 30
0.0
 40
0
 41
0
  0
VERTEX
  8
0
 10
6.39063
 20
6.16292
 30
0.0
 40
0
 41
0
  0
VERTEX
  8
0
 10
6.43864
 20
6.17583
 30
0.0
 40
0
 41
0
  0
VERTEX
  8
0
 10
6.45464
 20
6.17583
 30
0.0
 40
0
 41
0
  0
VERTEX
  8
0
 10
6.4719
 20
6.17583
 30
0.0
 40
0
 41
0
  0
VERTEX
  8
0
 10
6.51844
 20
6.16325
 30
0.0
 40
0
 41
0
  0
VERTEX
  8
0
 10
6.52371
 20
6.16081
 30
0.0
 40
0
 41
0
  0
VERTEX
  8
0
 10
6.78364
 20
6.04069
 30
0.0
 40
0
 41
0
  0
VERTEX
  8
0
 10
6.54329
 20
5.87272
 30
0.0
 40
0
 41
0
  0
VERTEX
  8
0
 10
6.53689
 20
5.86865
 30
0.0
 40
0
 41
0
  0
VERTEX
  8
0
 10
6.50157
 20
5.85379
 30
0.0
 40
0
 41
0
  0
VERTEX
  8
0
 10
6.46636
 20
5.84711
 30
0.0
 40
0
 41
0
  0
VERTEX
  8
0
 10
6.45464
 20
5.84711
 30
0.0
 40
0
 41
0
  0
VERTEX
  8
0
 10
6.43864
 20
5.84711
 30
0.0
 40
0
 41
0
  0
VERTEX
  8
0
 10
6.39063
 20
5.86008
 30
0.0
 40
0
 41
0
  0
VERTEX
  8
0
 10
6.33838
 20
5.89529
 30
0.0
 40
0
 41
0
  0
VERTEX
  8
0
 10
6.30317
 20
5.94754
 30
0.0
 40
0
 41
0
  0
VERTEX
  8
0
 10
6.29025
 20
5.99556
 30
0.0
 40
0
 41
0
  0
VERTEX
  8
0
 10
6.29025
 20
6.0115
 30
0.0
 40
0
 41
0
  0
SEQEND
 8
0
  0
POLYLINE
  8
0
 62
     8
 66
     1
 10
0
 20
0
 30
0.0
 70
     1
 40
0
 41
0
  0
VERTEX
  8
0
 10
6.57172
 20
5.23008
 30
0.0
 40
0
 41
0
  0
VERTEX
  8
0
 10
6.55013
 20
5.25672
 30
0.0
 40
0
 41
0
  0
VERTEX
  8
0
 10
6.33865
 20
5.52588
 30
0.0
 40
0
 41
0
  0
VERTEX
  8
0
 10
6.31808
 20
5.55322
 30
0.0
 40
0
 41
0
  0
VERTEX
  8
0
 10
6.33914
 20
5.52181
 30
0.0
 40
0
 41
0
  0
VERTEX
  8
0
 10
6.33578
 20
5.52642
 30
0.0
 40
0
 41
0
  0
VERTEX
  8
0
 10
6.30512
 20
5.57389
 30
0.0
 40
0
 41
0
  0
VERTEX
  8
0
 10
6.30263
 20
5.579
 30
0.0
 40
0
 41
0
  0
VERTEX
  8
0
 10
6.29801
 20
5.58832
 30
0.0
 40
0
 41
0
  0
VERTEX
  8
0
 10
6.28814
 20
5.63721
 30
0.0
 40
0
 41
0
  0
VERTEX
  8
0
 10
6.29943
 20
5.68554
 30
0.0
 40
0
 41
0
  0
VERTEX
  8
0
 10
6.30539
 20
5.69456
 30
0.0
 40
0
 41
0
  0
VERTEX
  8
0
 10
6.30908
 20
5.70019
 30
0.0
 40
0
 41
0
  0
VERTEX
  8
0
 10
6.33382
 20
5.71436
 30
0.0
 40
0
 41
0
  0
VERTEX
  8
0
 10
6.36339
 20
5.71767
 30
0.0
 40
0
 41
0
  0
VERTEX
  8
0
 10
6.36947
 20
5.71783
 30
0.0
 40
0
 41
0
  0
VERTEX
  8
0
 10
6.37472
 20
5.71669
 30
0.0
 40
0
 41
0
  0
VERTEX
  8
0
 10
6.41982
 20
5.71067
 30
0.0
 40
0
 41
0
  0
VERTEX
  8
0
 10
6.4349
 20
5.71067
 30
0.0
 40
0
 41
0
  0
VERTEX
  8
0
 10
6.44824
 20
5.71067
 30
0.0
 40
0
 41
0
  0
VERTEX
  8
0
 10
6.48839
 20
5.71544
 30
0.0
 40
0
 41
0
  0
VERTEX
  8
0
 10
6.53885
 20
5.72917
 30
0.0
 40
0
 41
0
  0
VERTEX
  8
0
 10
6.58535
 20
5.75097
 30
0.0
 40
0
 41
0
  0
VERTEX
  8
0
 10
6.6174
 20
5.77203
 30
0.0
 40
0
 41
0
  0
VERTEX
  8
0
 10
6.62717
 20
5.78011
 30
0.0
 40
0
 41
0
  0
VERTEX
  8
0
 10
7.03185
 20
6.06565
 30
0.0
 40
0
 41
0
  0
VERTEX
  8
0
 10
6.58649
 20
6.27143
 30
0.0
 40
0
 41
0
  0
VERTEX
  8
0
 10
6.57889
 20
6.27588
 30
0.0
 40
0
 41
0
  0
VERTEX
  8
0
 10
6.53851
 20
6.29406
 30
0.0
 40
0
 41
0
  0
VERTEX
  8
0
 10
6.49539
 20
6.30647
 30
0.0
 40
0
 41
0
  0
VERTEX
  8
0
 10
6.48643
 20
6.308
 30
0.0
 40
0
 41
0
  0
VERTEX
  8
0
 10
6.48232
 20
6.30881
 30
0.0
 40
0
 41
0
  0
VERTEX
  8
0
 10
6.44103
 20
6.31256
 30
0.0
 40
0
 41
0
  0
VERTEX
  8
0
 10
6.43696
 20
6.31244
 30
0.0
 40
0
 41
0
  0
VERTEX
  8
0
 10
6.43642
 20
6.31244
 30
0.0
 40
0
 41
0
  0
VERTEX
  8
0
 10
6.43528
 20
6.3125
 30
0.0
 40
0
 41
0
  0
VERTEX
  8
0
 10
6.4349
 20
6.3125
 30
0.0
 40
0
 41
0
  0
VERTEX
  8
0
 10
6.42225
 20
6.3125
 30
0.0
 40
0
 41
0
  0
VERTEX
  8
0
 10
6.38433
 20
6.30811
 30
0.0
 40
0
 41
0
  0
VERTEX
  8
0
 10
6.34293
 20
6.2985
 30
0.0
 40
0
 41
0
  0
VERTEX
  8
0
 10
6.33518
 20
6.2959
 30
0.0
 40
0
 41
0
  0
VERTEX
  8
0
 10
6.32324
 20
6.29194
 30
0.0
 40
0
 41
0
  0
VERTEX
  8
0
 10
6.28911
 20
6.27496
 30
0.0
 40
0
 41
0
  0
VERTEX
  8
0
 10
6.24669
 20
6.24501
 30
0.0
 40
0
 41
0
  0
VERTEX
  8
0
 10
6.2099
 20
6.20844
 30
0.0
 40
0
 41
0
  0
VERTEX
  8
0
 10
6.18701
 20
6.17833
 30
0.0
 40
0
 41
0
  0
VERTEX
  8
0
 10
6.18072
 20
6.16749
 30
0.0
 40
0
 41
0
  0
VERTEX
  8
0
 10
6.17193
 20
6.1525
 30
0.0
 40
0
 41
0
  0
VERTEX
  8
0
 10
6.13835
 20
6.07172
 30
0.0
 40
0
 41
0
  0
VERTEX
  8
0
 10
6.11649
 20
5.98687
 30
0.0
 40
0
 41
0
  0
VERTEX
  8
0
 10
6.11356
 20
5.96983
 30
0.0
 40
0
 41
0
  0
VERTEX
  8
0
 10
6.11187
 20
5.96024
 30
0.0
 40
0
 41
0
  0
VERTEX
  8
0
 10
6.10124
 20
5.86312
 30
0.0
 40
0
 41
0
  0
VERTEX
  8
0
 10
6.10069
 20
5.85335
 30
0.0
 40
0
 41
0
  0
VERTEX
  8
0
 10
6.09918
 20
5.8285
 30
0.0
 40
0
 41
0
  0
VERTEX
  8
0
 10
6.10781
 20
5.70785
 30
0.0
 40
0
 41
0
  0
VERTEX
  8
0
 10
6.14051
 20
5.59153
 30
0.0
 40
0
 41
0
  0
VERTEX
  8
0
 10
6.15104
 20
5.56879
 30
0.0
 40
0
 41
0
  0
VERTEX
  8
0
 10
6.15381
 20
5.56278
 30
0.0
 40
0
 41
0
  0
VERTEX
  8
0
 10
6.18554
 20
5.50413
 30
0.0
 40
0
 41
0
  0
VERTEX
  8
0
 10
6.18907
 20
5.49843
 30
0.0
 40
0
 41
0
  0
VERTEX
  8
0
 10
6.19243
 20
5.49294
 30
0.0
 40
0
 41
0
  0
VERTEX
  8
0
 10
6.22846
 20
5.4394
 30
0.0
 40
0
 41
0
  0
VERTEX
  8
0
 10
6.23226
 20
5.43414
 30
0.0
 40
0
 41
0
  0
VERTEX
  8
0
 10
6.23671
 20
5.42796
 30
0.0
 40
0
 41
0
  0
VERTEX
  8
0
 10
6.28267
 20
5.36692
 30
0.0
 40
0
 41
0
  0
VERTEX
  8
0
 10
6.28733
 20
5.36083
 30
0.0
 40
0
 41
0
  0
VERTEX
  8
0
 10
6.29313
 20
5.35331
 30
0.0
 40
0
 41
0
  0
VERTEX
  8
0
 10
6.35297
 20
5.27924
 30
0.0
 40
0
 41
0
  0
VERTEX
  8
0
 10
6.3591
 20
5.27192
 30
0.0
 40
0
 41
0
  0
VERTEX
  8
0
 10
6.3655
 20
5.26421
 30
0.0
 40
0
 41
0
  0
VERTEX
  8
0
 10
6.4299
 20
5.18733
 30
0.0
 40
0
 41
0
  0
VERTEX
  8
0
 10
6.43636
 20
5.17964
 30
0.0
 40
0
 41
0
  0
VERTEX
  8
0
 10
6.46013
 20
5.1511
 30
0.0
 40
0
 41
0
  0
VERTEX
  8
0
 10
6.57568
 20
5.00597
 30
0.0
 40
0
 41
0
  0
VERTEX
  8
0
 10
6.68028
 20
4.85275
 30
0.0
 40
0
 41
0
  0
VERTEX
  8
0
 10
6.69862
 20
4.82021
 30
0.0
 40
0
 41
0
  0
VERTEX
  8
0
 10
6.71897
 20
4.78401
 30
0.0
 40
0
 41
0
  0
VERTEX
  8
0
 10
6.76844
 20
4.66878
 30
0.0
 40
0
 41
0
  0
VERTEX
  8
0
 10
6.80871
 20
4.51699
 30
0.0
 40
0
 41
0
  0
VERTEX
  8
0
 10
6.81982
 20
4.36714
 30
0.0
 40
0
 41
0
  0
VERTEX
  8
0
 10
6.80236
 20
4.22131
 30
0.0
 40
0
 41
0
  0
VERTEX
  8
0
 10
6.75678
 20
4.08182
 30
0.0
 40
0
 41
0
  0
VERTEX
  8
0
 10
6.68349
 20
3.95079
 30
0.0
 40
0
 41
0
  0
VERTEX
  8
0
 10
6.58306
 20
3.83046
 30
0.0
 40
0
 41
0
  0
VERTEX
  8
0
 10
6.48964
 20
3.74713
 30
0.0
 40
0
 41
0
  0
VERTEX
  8
0
 10
6.45594
 20
3.72299
 30
0.0
 40
0
 41
0
  0
VERTEX
  8
0
 10
6.43272
 20
3.70643
 30
0.0
 40
0
 41
0
  0
VERTEX
  8
0
 10
6.31136
 20
3.63346
 30
0.0
 40
0
 41
0
  0
VERTEX
  8
0
 10
6.18338
 20
3.57308
 30
0.0
 40
0
 41
0
  0
VERTEX
  8
0
 10
6.15685
 20
3.56278
 30
0.0
 40
0
 41
0
  0
VERTEX
  8
0
 10
6.14654
 20
3.55881
 30
0.0
 40
0
 41
0
  0
VERTEX
  8
0
 10
6.11535
 20
3.54736
 30
0.0
 40
0
 41
0
  0
VERTEX
  8
0
 10
6.0835
 20
3.53782
 30
0.0
 40
0
 41
0
  0
VERTEX
  8
0
 10
6.05994
 20
3.53494
 30
0.0
 40
0
 41
0
  0
VERTEX
  8
0
 10
6.04351
 20
3.53965
 30
0.0
 40
0
 41
0
  0
VERTEX
  8
0
 10
6.03288
 20
3.55268
 30
0.0
 40
0
 41
0
  0
VERTEX
  8
0
 10
6.02681
 20
3.57497
 30
0.0
 40
0
 41
0
  0
VERTEX
  8
0
 10
6.02408
 20
3.60726
 30
0.0
 40
0
 41
0
  0
VERTEX
  8
0
 10
6.02339
 20
3.6396
 30
0.0
 40
0
 41
0
  0
VERTEX
  8
0
 10
6.02339
 20
3.65033
 30
0.0
 40
0
 41
0
  0
VERTEX
  8
0
 10
6.02317
 20
3.72954
 30
0.0
 40
0
 41
0
  0
VERTEX
  8
0
 10
6.02311
 20
4.38271
 30
0.0
 40
0
 41
0
  0
VERTEX
  8
0
 10
6.02311
 20
4.60037
 30
0.0
 40
0
 41
0
  0
VERTEX
  8
0
 10
6.02311
 20
4.63374
 30
0.0
 40
0
 41
0
  0
VERTEX
  8
0
 10
6.02317
 20
4.73378
 30
0.0
 40
0
 41
0
  0
VERTEX
  8
0
 10
6.02328
 20
4.8859
 30
0.0
 40
0
 41
0
  0
VERTEX
  8
0
 10
6.02344
 20
5.04557
 30
0.0
 40
0
 41
0
  0
VERTEX
  8
0
 10
6.0236
 20
5.2015
 30
0.0
 40
0
 41
0
  0
VERTEX
  8
0
 10
6.02376
 20
5.34239
 30
0.0
 40
0
 41
0
  0
VERTEX
  8
0
 10
6.02387
 20
5.45697
 30
0.0
 40
0
 41
0
  0
VERTEX
  8
0
 10
6.02399
 20
5.53396
 30
0.0
 40
0
 41
0
  0
VERTEX
  8
0
 10
6.02403
 20
5.56212
 30
0.0
 40
0
 41
0
  0
VERTEX
  8
0
 10
6.02403
 20
5.56212
 30
0.0
 40
0
 41
0
  0
VERTEX
  8
0
 10
6.02403
 20
5.57514
 30
0.0
 40
0
 41
0
  0
VERTEX
  8
0
 10
6.02393
 20
5.57514
 30
0.0
 40
0
 41
0
  0
VERTEX
  8
0
 10
6.02382
 20
5.58187
 30
0.0
 40
0
 41
0
  0
VERTEX
  8
0
 10
6.01812
 20
5.60189
 30
0.0
 40
0
 41
0
  0
VERTEX
  8
0
 10
6.00315
 20
5.62364
 30
0.0
 40
0
 41
0
  0
VERTEX
  8
0
 10
5.98112
 20
5.63829
 30
0.0
 40
0
 41
0
  0
VERTEX
  8
0
 10
5.96099
 20
5.64367
 30
0.0
 40
0
 41
0
  0
VERTEX
  8
0
 10
5.95432
 20
5.64367
 30
0.0
 40
0
 41
0
  0
VERTEX
  8
0
 10
5.94754
 20
5.64367
 30
0.0
 40
0
 41
0
  0
VERTEX
  8
0
 10
5.92719
 20
5.63824
 30
0.0
 40
0
 41
0
  0
VERTEX
  8
0
 10
5.90506
 20
5.62326
 30
0.0
 40
0
 41
0
  0
VERTEX
  8
0
 10
5.89008
 20
5.60113
 30
0.0
 40
0
 41
0
  0
VERTEX
  8
0
 10
5.88465
 20
5.58078
 30
0.0
 40
0
 41
0
  0
VERTEX
  8
0
 10
5.88465
 20
5.574
 30
0.0
 40
0
 41
0
  0
VERTEX
  8
0
 10
5.88465
 20
5.57362
 30
0.0
 40
0
 41
0
  0
VERTEX
  8
0
 10
5.88482
 20
5.57275
 30
0.0
 40
0
 41
0
  0
VERTEX
  8
0
 10
5.88482
 20
5.57243
 30
0.0
 40
0
 41
0
  0
VERTEX
  8
0
 10
5.88476
 20
5.57156
 30
0.0
 40
0
 41
0
  0
VERTEX
  8
0
 10
5.88465
 20
5.56424
 30
0.0
 40
0
 41
0
  0
VERTEX
  8
0
 10
5.88465
 20
5.56174
 30
0.0
 40
0
 41
0
  0
VERTEX
  8
0
 10
5.88488
 20
5.39751
 30
0.0
 40
0
 41
0
  0
VERTEX
  8
0
 10
5.88525
 20
3.75526
 30
0.0
 40
0
 41
0
  0
VERTEX
  8
0
 10
5.88525
 20
3.59099
 30
0.0
 40
0
 41
0
  0
VERTEX
  8
0
 10
5.88525
 20
3.57932
 30
0.0
 40
0
 41
0
  0
VERTEX
  8
0
 10
5.88357
 20
3.55296
 30
0.0
 40
0
 41
0
  0
VERTEX
  8
0
 10
5.88357
 20
3.54417
 30
0.0
 40
0
 41
0
  0
VERTEX
  8
0
 10
5.88357
 20
3.53526
 30
0.0
 40
0
 41
0
  0
VERTEX
  8
0
 10
5.87642
 20
3.50846
 30
0.0
 40
0
 41
0
  0
VERTEX
  8
0
 10
5.85726
 20
3.48699
 30
0.0
 40
0
 41
0
  0
VERTEX
  8
0
 10
5.82958
 20
3.47581
 30
0.0
 40
0
 41
0
  0
VERTEX
  8
0
 10
5.80518
 20
3.47174
 30
0.0
 40
0
 41
0
  0
VERTEX
  8
0
 10
5.79699
 20
3.47108
 30
0.0
 40
0
 41
0
  0
VERTEX
  8
0
 10
5.78842
 20
3.47043
 30
0.0
 40
0
 41
0
  0
VERTEX
  8
0
 10
5.76215
 20
3.47618
 30
0.0
 40
0
 41
0
  0
VERTEX
  8
0
 10
5.74576
 20
3.49501
 30
0.0
 40
0
 41
0
  0
VERTEX
  8
0
 10
5.741
 20
3.52186
 30
0.0
 40
0
 41
0
  0
VERTEX
  8
0
 10
5.74094
 20
3.54378
 30
0.0
 40
0
 41
0
  0
VERTEX
  8
0
 10
5.74094
 20
3.55106
 30
0.0
 40
0
 41
0
  0
VERTEX
  8
0
 10
5.74078
 20
3.63612
 30
0.0
 40
0
 41
0
  0
VERTEX
  8
0
 10
5.74056
 20
4.33778
 30
0.0
 40
0
 41
0
  0
VERTEX
  8
0
 10
5.74056
 20
4.57161
 30
0.0
 40
0
 41
0
  0
VERTEX
  8
0
 10
5.7405
 20
4.65375
 30
0.0
 40
0
 41
0
  0
VERTEX
  8
0
 10
5.74072
 20
5.47493
 30
0.0
 40
0
 41
0
  0
VERTEX
  8
0
 10
5.741
 20
5.55701
 30
0.0
 40
0
 41
0
  0
VERTEX
  8
0
 10
5.741
 20
5.56104
 30
0.0
 40
0
 41
0
  0
VERTEX
  8
0
 10
5.74061
 20
5.57161
 30
0.0
 40
0
 41
0
  0
VERTEX
  8
0
 10
5.74061
 20
5.57292
 30
0.0
 40
0
 41
0
  0
VERTEX
  8
0
 10
5.74061
 20
5.57303
 30
0.0
 40
0
 41
0
  0
VERTEX
  8
0
 10
5.74078
 20
5.57394
 30
0.0
 40
0
 41
0
  0
VERTEX
  8
0
 10
5.74078
 20
5.57422
 30
0.0
 40
0
 41
0
  0
VERTEX
  8
0
 10
5.74078
 20
5.58106
 30
0.0
 40
0
 41
0
  0
VERTEX
  8
0
 10
5.73525
 20
5.60146
 30
0.0
 40
0
 41
0
  0
VERTEX
  8
0
 10
5.72026
 20
5.62364
 30
0.0
 40
0
 41
0
  0
VERTEX
  8
0
 10
5.69808
 20
5.63861
 30
0.0
 40
0
 41
0
  0
VERTEX
  8
0
 10
5.67768
 20
5.6441
 30
0.0
 40
0
 41
0
  0
VERTEX
  8
0
 10
5.6709
 20
5.6441
 30
0.0
 40
0
 41
0
  0
VERTEX
  8
0
 10
5.66411
 20
5.6441
 30
0.0
 40
0
 41
0
  0
VERTEX
  8
0
 10
5.64388
 20
5.63872
 30
0.0
 40
0
 41
0
  0
VERTEX
  8
0
 10
5.62181
 20
5.62397
 30
0.0
 40
0
 41
0
  0
VERTEX
  8
0
 10
5.60682
 20
5.60206
 30
0.0
 40
0
 41
0
  0
VERTEX
  8
0
 10
5.60113
 20
5.58192
 30
0.0
 40
0
 41
0
  0
VERTEX
  8
0
 10
5.60107
 20
5.57514
 30
0.0
 40
0
 41
0
  0
VERTEX
  8
0
 10
5.60101
 20
5.57514
 30
0.0
 40
0
 41
0
  0
VERTEX
  8
0
 10
5.60101
 20
5.54438
 30
0.0
 40
0
 41
0
  0
VERTEX
  8
0
 10
5.60183
 20
5.23643
 30
0.0
 40
0
 41
0
  0
VERTEX
  8
0
 10
5.60189
 20
5.20562
 30
0.0
 40
0
 41
0
  0
VERTEX
  8
0
 10
5.60189
 20
5.07563
 30
0.0
 40
0
 41
0
  0
VERTEX
  8
0
 10
5.60189
 20
3.77556
 30
0.0
 40
0
 41
0
  0
VERTEX
  8
0
 10
5.60189
 20
3.64551
 30
0.0
 40
0
 41
0
  0
VERTEX
  8
0
 10
5.60189
 20
3.61914
 30
0.0
 40
0
 41
0
  0
VERTEX
  8
0
 10
5.60124
 20
3.54878
 30
0.0
 40
0
 41
0
  0
VERTEX
  8
0
 10
5.60113
 20
3.53999
 30
0.0
 40
0
 41
0
  0
VERTEX
  8
0
 10
5.60101
 20
3.53179
 30
0.0
 40
0
 41
0
  0
VERTEX
  8
0
 10
5.59879
 20
3.50706
 30
0.0
 40
0
 41
0
  0
VERTEX
  8
0
 10
5.58974
 20
3.47939
 30
0.0
 40
0
 41
0
  0
VERTEX
  8
0
 10
5.56939
 20
3.46001
 30
0.0
 40
0
 41
0
  0
VERTEX
  8
0
 10
5.54237
 20
3.45221
 30
0.0
 40
0
 41
0
  0
VERTEX
  8
0
 10
5.53331
 20
3.45188
 30
0.0
 40
0
 41
0
  0
VERTEX
  8
0
 10
5.52328
 20
3.45156
 30
0.0
 40
0
 41
0
  0
VERTEX
  8
0
 10
5.49306
 20
3.4579
 30
0.0
 40
0
 41
0
  0
VERTEX
  8
0
 10
5.47021
 20
3.47726
 30
0.0
 40
0
 41
0
  0
VERTEX
  8
0
 10
5.46007
 20
3.50683
 30
0.0
 40
0
 41
0
  0
VERTEX
  8
0
 10
5.45779
 20
3.53424
 30
0.0
 40
0
 41
0
  0
VERTEX
  8
0
 10
5.45779
 20
3.54335
 30
0.0
 40
0
 41
0
  0
VERTEX
  8
0
 10
5.45785
 20
3.5981
 30
0.0
 40
0
 41
0
  0
VERTEX
  8
0
 10
5.45751
 20
4.14551
 30
0.0
 40
0
 41
0
  0
VERTEX
  8
0
 10
5.45751
 20
4.20025
 30
0.0
 40
0
 41
0
  0
VERTEX
  8
0
 10
5.45747
 20
4.23156
 30
0.0
 40
0
 41
0
  0
VERTEX
  8
0
 10
5.45751
 20
4.48958
 30
0.0
 40
0
 41
0
  0
VERTEX
  8
0
 10
5.45751
 20
4.57557
 30
0.0
 40
0
 41
0
  0
VERTEX
  8
0
 10
5.45751
 20
4.60829
 30
0.0
 40
0
 41
0
  0
VERTEX
  8
0
 10
5.45751
 20
4.70628
 30
0.0
 40
0
 41
0
  0
VERTEX
  8
0
 10
5.45757
 20
4.85867
 30
0.0
 40
0
 41
0
  0
VERTEX
  8
0
 10
5.45763
 20
5.02121
 30
0.0
 40
0
 41
0
  0
VERTEX
  8
0
 10
5.45774
 20
5.18213
 30
0.0
 40
0
 41
0
  0
VERTEX
  8
0
 10
5.45785
 20
5.32969
 30
0.0
 40
0
 41
0
  0
VERTEX
  8
0
 10
5.45796
 20
5.45215
 30
0.0
 40
0
 41
0
  0
VERTEX
  8
0
 10
5.45801
 20
5.53792
 30
0.0
 40
0
 41
0
  0
VERTEX
  8
0
 10
5.45806
 20
5.56907
 30
0.0
 40
0
 41
0
  0
VERTEX
  8
0
 10
5.45811
 20
5.57514
 30
0.0
 40
0
 41
0
  0
VERTEX
  8
0
 10
5.45796
 20
5.57514
 30
0.0
 40
0
 41
0
  0
VERTEX
  8
0
 10
5.45785
 20
5.58187
 30
0.0
 40
0
 41
0
  0
VERTEX
  8
0
 10
5.45221
 20
5.60183
 30
0.0
 40
0
 41
0
  0
VERTEX
  8
0
 10
5.43728
 20
5.62354
 30
0.0
 40
0
 41
0
  0
VERTEX
  8
0
 10
5.41536
 20
5.63818
 30
0.0
 40
0
 41
0
  0
VERTEX
  8
0
 10
5.39529
 20
5.6435
 30
0.0
 40
0
 41
0
  0
VERTEX
  8
0
 10
5.38861
 20
5.6435
 30
0.0
 40
0
 41
0
  0
VERTEX
  8
0
 10
5.38189
 20
5.6435
 30
0.0
 40
0
 41
0
  0
VERTEX
  8
0
 10
5.36176
 20
5.63818
 30
0.0
 40
0
 41
0
  0
VERTEX
  8
0
 10
5.33985
 20
5.62354
 30
0.0
 40
0
 41
0
  0
VERTEX
  8
0
 10
5.32493
 20
5.60183
 30
0.0
 40
0
 41
0
  0
VERTEX
  8
0
 10
5.31928
 20
5.58187
 30
0.0
 40
0
 41
0
  0
VERTEX
  8
0
 10
5.31922
 20
5.57514
 30
0.0
 40
0
 41
0
  0
VERTEX
  8
0
 10
5.31912
 20
5.57514
 30
0.0
 40
0
 41
0
  0
VERTEX
  8
0
 10
5.31912
 20
5.57406
 30
0.0
 40
0
 41
0
  0
VERTEX
  8
0
 10
5.31912
 20
5.57406
 30
0.0
 40
0
 41
0
  0
VERTEX
  8
0
 10
5.31912
 20
5.574
 30
0.0
 40
0
 41
0
  0
VERTEX
  8
0
 10
5.31912
 20
5.574
 30
0.0
 40
0
 41
0
  0
VERTEX
  8
0
 10
5.31912
 20
5.574
 30
0.0
 40
0
 41
0
  0
VERTEX
  8
0
 10
5.31912
 20
5.57394
 30
0.0
 40
0
 41
0
  0
VERTEX
  8
0
 10
5.31912
 20
5.57394
 30
0.0
 40
0
 41
0
  0
VERTEX
  8
0
 10
5.31912
 20
5.56831
 30
0.0
 40
0
 41
0
  0
VERTEX
  8
0
 10
5.31907
 20
5.55132
 30
0.0
 40
0
 41
0
  0
VERTEX
  8
0
 10
5.31907
 20
5.50196
 30
0.0
 40
0
 41
0
  0
VERTEX
  8
0
 10
5.31912
 20
5.42871
 30
0.0
 40
0
 41
0
  0
VERTEX
  8
0
 10
5.31912
 20
5.33436
 30
0.0
 40
0
 41
0
  0
VERTEX
  8
0
 10
5.31912
 20
5.22179
 30
0.0
 40
0
 41
0
  0
VERTEX
  8
0
 10
5.31912
 20
5.09369
 30
0.0
 40
0
 41
0
  0
VERTEX
  8
0
 10
5.31917
 20
4.95285
 30
0.0
 40
0
 41
0
  0
VERTEX
  8
0
 10
5.31917
 20
4.80214
 30
0.0
 40
0
 41
0
  0
VERTEX
  8
0
 10
5.31917
 20
4.64437
 30
0.0
 40
0
 41
0
  0
VERTEX
  8
0
 10
5.31912
 20
4.48221
 30
0.0
 40
0
 41
0
  0
VERTEX
  8
0
 10
5.31912
 20
4.31858
 30
0.0
 40
0
 41
0
  0
VERTEX
  8
0
 10
5.31907
 20
4.15625
 30
0.0
 40
0
 41
0
  0
VERTEX
  8
0
 10
5.31901
 20
3.99794
 30
0.0
 40
0
 41
0
  0
VERTEX
  8
0
 10
5.3189
 20
3.84657
 30
0.0
 40
0
 41
0
  0
VERTEX
  8
0
 10
5.31879
 20
3.70481
 30
0.0
 40
0
 41
0
  0
VERTEX
  8
0
 10
5.31868
 20
3.60786
 30
0.0
 40
0
 41
0
  0
VERTEX
  8
0
 10
5.31868
 20
3.57553
 30
0.0
 40
0
 41
0
  0
VERTEX
  8
0
 10
5.31868
 20
3.57086
 30
0.0
 40
0
 41
0
  0
VERTEX
  8
0
 10
5.31885
 20
3.55675
 30
0.0
 40
0
 41
0
  0
VERTEX
  8
0
 10
5.31879
 20
3.5376
 30
0.0
 40
0
 41
0
  0
VERTEX
  8
0
 10
5.31733
 20
3.51893
 30
0.0
 40
0
 41
0
  0
VERTEX
  8
0
 10
5.31332
 20
3.50179
 30
0.0
 40
0
 41
0
  0
VERTEX
  8
0
 10
5.30561
 20
3.48708
 30
0.0
 40
0
 41
0
  0
VERTEX
  8
0
 10
5.29313
 20
3.47586
 30
0.0
 40
0
 41
0
  0
VERTEX
  8
0
 10
5.27474
 20
3.46897
 30
0.0
 40
0
 41
0
  0
VERTEX
  8
0
 10
5.25558
 20
3.46718
 30
0.0
 40
0
 41
0
  0
VERTEX
  8
0
 10
5.24929
 20
3.46744
 30
0.0
 40
0
 41
0
  0
VERTEX
  8
0
 10
5.23926
 20
3.46799
 30
0.0
 40
0
 41
0
  0
VERTEX
  8
0
 10
5.20964
 20
3.47781
 30
0.0
 40
0
 41
0
  0
VERTEX
  8
0
 10
5.18653
 20
3.50157
 30
0.0
 40
0
 41
0
  0
VERTEX
  8
0
 10
5.17583
 20
3.53549
 30
0.0
 40
0
 41
0
  0
VERTEX
  8
0
 10
5.17329
 20
3.56603
 30
0.0
 40
0
 41
0
  0
VERTEX
  8
0
 10
5.17333
 20
3.57617
 30
0.0
 40
0
 41
0
  0
VERTEX
  8
0
 10
5.17367
 20
3.66032
 30
0.0
 40
0
 41
0
  0
VERTEX
  8
0
 10
5.17404
 20
4.35449
 30
0.0
 40
0
 41
0
  0
VERTEX
  8
0
 10
5.17404
 20
4.58583
 30
0.0
 40
0
 41
0
  0
VERTEX
  8
0
 10
5.17404
 20
4.61893
 30
0.0
 40
0
 41
0
  0
VERTEX
  8
0
 10
5.17404
 20
4.7181
 30
0.0
 40
0
 41
0
  0
VERTEX
  8
0
 10
5.1741
 20
4.86951
 30
0.0
 40
0
 41
0
  0
VERTEX
  8
0
 10
5.17415
 20
5.02924
 30
0.0
 40
0
 41
0
  0
VERTEX
  8
0
 10
5.17421
 20
5.18647
 30
0.0
 40
0
 41
0
  0
VERTEX
  8
0
 10
5.17426
 20
5.33035
 30
0.0
 40
0
 41
0
  0
VERTEX
  8
0
 10
5.17426
 20
5.45008
 30
0.0
 40
0
 41
0
  0
VERTEX
  8
0
 10
5.17426
 20
5.53483
 30
0.0
 40
0
 41
0
  0
VERTEX
  8
0
 10
5.17426
 20
5.56549
 30
0.0
 40
0
 41
0
  0
VERTEX
  8
0
 10
5.17426
 20
5.57374
 30
0.0
 40
0
 41
0
  0
VERTEX
  8
0
 10
5.17426
 20
5.57374
 30
0.0
 40
0
 41
0
  0
VERTEX
  8
0
 10
5.17432
 20
5.57394
 30
0.0
 40
0
 41
0
  0
VERTEX
  8
0
 10
5.17432
 20
5.574
 30
0.0
 40
0
 41
0
  0
VERTEX
  8
0
 10
5.17432
 20
5.574
 30
0.0
 40
0
 41
0
  0
VERTEX
  8
0
 10
5.17426
 20
5.57428
 30
0.0
 40
0
 41
0
  0
VERTEX
  8
0
 10
5.17426
 20
5.57433
 30
0.0
 40
0
 41
0
  0
VERTEX
  8
0
 10
5.17426
 20
5.57454
 30
0.0
 40
0
 41
0
  0
VERTEX
  8
0
 10
5.17426
 20
5.57503
 30
0.0
 40
0
 41
0
  0
VERTEX
  8
0
 10
5.17426
 20
5.57514
 30
0.0
 40
0
 41
0
  0
VERTEX
  8
0
 10
5.17415
 20
5.57514
 30
0.0
 40
0
 41
0
  0
VERTEX
  8
0
 10
5.17404
 20
5.58176
 30
0.0
 40
0
 41
0
  0
VERTEX
  8
0
 10
5.16846
 20
5.60151
 30
0.0
 40
0
 41
0
  0
VERTEX
  8
0
 10
5.15369
 20
5.62299
 30
0.0
 40
0
 41
0
  0
VERTEX
  8
0
 10
5.132
 20
5.63747
 30
0.0
 40
0
 41
0
  0
VERTEX
  8
0
 10
5.11214
 20
5.64274
 30
0.0
 40
0
 41
0
  0
VERTEX
  8
0
 10
5.10558
 20
5.64274
 30
0.0
 40
0
 41
0
  0
VERTEX
  8
0
 10
5.0989
 20
5.64274
 30
0.0
 40
0
 41
0
  0
VERTEX
  8
0
 10
5.07904
 20
5.63747
 30
0.0
 40
0
 41
0
  0
VERTEX
  8
0
 10
5.05735
 20
5.62299
 30
0.0
 40
0
 41
0
  0
VERTEX
  8
0
 10
5.04258
 20
5.60151
 30
0.0
 40
0
 41
0
  0
VERTEX
  8
0
 10
5.037
 20
5.58176
 30
0.0
 40
0
 41
0
  0
VERTEX
  8
0
 10
5.03694
 20
5.57514
 30
0.0
 40
0
 41
0
  0
VERTEX
  8
0
 10
5.03678
 20
5.57514
 30
0.0
 40
0
 41
0
  0
VERTEX
  8
0
 10
5.03678
 20
5.56787
 30
0.0
 40
0
 41
0
  0
VERTEX
  8
0
 10
5.03678
 20
5.54606
 30
0.0
 40
0
 41
0
  0
VERTEX
  8
0
 10
5.03689
 20
5.46674
 30
0.0
 40
0
 41
0
  0
VERTEX
  8
0
 10
5.03706
 20
5.34896
 30
0.0
 40
0
 41
0
  0
VERTEX
  8
0
 10
5.03722
 20
5.20415
 30
0.0
 40
0
 41
0
  0
VERTEX
  8
0
 10
5.03733
 20
5.04394
 30
0.0
 40
0
 41
0
  0
VERTEX
  8
0
 10
5.03749
 20
4.87999
 30
0.0
 40
0
 41
0
  0
VERTEX
  8
0
 10
5.0376
 20
4.72379
 30
0.0
 40
0
 41
0
  0
VERTEX
  8
0
 10
5.03765
 20
4.62115
 30
0.0
 40
0
 41
0
  0
VERTEX
  8
0
 10
5.03765
 20
4.58692
 30
0.0
 40
0
 41
0
  0
VERTEX
  8
0
 10
5.03765
 20
4.50765
 30
0.0
 40
0
 41
0
  0
VERTEX
  8
0
 10
5.03819
 20
3.7149
 30
0.0
 40
0
 41
0
  0
VERTEX
  8
0
 10
5.03901
 20
3.63564
 30
0.0
 40
0
 41
0
  0
VERTEX
  8
0
 10
5.03911
 20
3.62136
 30
0.0
 40
0
 41
0
  0
VERTEX
  8
0
 10
5.03407
 20
3.57835
 30
0.0
 40
0
 41
0
  0
VERTEX
  8
0
 10
5.01546
 20
3.54579
 30
0.0
 40
0
 41
0
  0
VERTEX
  8
0
 10
4.97976
 20
3.53754
 30
0.0
 40
0
 41
0
  0
VERTEX
  8
0
 10
4.93674
 20
3.54769
 30
0.0
 40
0
 41
0
  0
VERTEX
  8
0
 10
4.92329
 20
3.55306
 30
0.0
 40
0
 41
0
  0
VERTEX
  8
0
 10
4.89247
 20
3.56543
 30
0.0
 40
0
 41
0
  0
VERTEX
  8
0
 10
4.80176
 20
3.60667
 30
0.0
 40
0
 41
0
  0
VERTEX
  8
0
 10
4.68869
 20
3.66781
 30
0.0
 40
0
 41
0
  0
VERTEX
  8
0
 10
4.5855
 20
3.7379
 30
0.0
 40
0
 41
0
  0
VERTEX
  8
0
 10
4.49365
 20
3.81819
 30
0.0
 40
0
 41
0
  0
VERTEX
  8
0
 10
4.4145
 20
3.9101
 30
0.0
 40
0
 41
0
  0
VERTEX
  8
0
 10
4.34961
 20
4.01497
 30
0.0
 40
0
 41
0
  0
VERTEX
  8
0
 10
4.30029
 20
4.13417
 30
0.0
 40
0
 41
0
  0
VERTEX
  8
0
 10
4.2736
 20
4.23492
 30
0.0
 40
0
 41
0
  0
VERTEX
  8
0
 10
4.26807
 20
4.26904
 30
0.0
 40
0
 41
0
  0
VERTEX
  8
0
 10
4.26221
 20
4.30496
 30
0.0
 40
0
 41
0
  0
VERTEX
  8
0
 10
4.25885
 20
4.41499
 30
0.0
 40
0
 41
0
  0
VERTEX
  8
0
 10
4.27724
 20
4.55528
 30
0.0
 40
0
 41
0
  0
VERTEX
  8
0
 10
4.31956
 20
4.69065
 30
0.0
 40
0
 41
0
  0
VERTEX
  8
0
 10
4.36464
 20
4.78988
 30
0.0
 40
0
 41
0
  0
VERTEX
  8
0
 10
4.38222
 20
4.8215
 30
0.0
 40
0
 41
0
  0
VERTEX
  8
0
 10
4.40272
 20
4.85856
 30
0.0
 40
0
 41
0
  0
VERTEX
  8
0
 10
4.5236
 20
5.03043
 30
0.0
 40
0
 41
0
  0
VERTEX
  8
0
 10
4.65679
 20
5.19331
 30
0.0
 40
0
 41
0
  0
VERTEX
  8
0
 10
4.68349
 20
5.22581
 30
0.0
 40
0
 41
0
  0
VERTEX
  8
0
 10
4.70708
 20
5.25461
 30
0.0
 40
0
 41
0
  0
VERTEX
  8
0
 10
4.81706
 20
5.40349
 30
0.0
 40
0
 41
0
  0
VERTEX
  8
0
 10
4.90994
 20
5.56407
 30
0.0
 40
0
 41
0
  0
VERTEX
  8
0
 10
4.92507
 20
5.59868
 30
0.0
 40
0
 41
0
  0
VERTEX
  8
0
 10
4.93554
 20
5.62283
 30
0.0
 40
0
 41
0
  0
VERTEX
  8
0
 10
4.96599
 20
5.75304
 30
0.0
 40
0
 41
0
  0
VERTEX
  8
0
 10
4.96994
 20
5.88699
 30
0.0
 40
0
 41
0
  0
VERTEX
  8
0
 10
4.96724
 20
5.91303
 30
0.0
 40
0
 41
0
  0
VERTEX
  8
0
 10
4.96636
 20
5.92111
 30
0.0
 40
0
 41
0
  0
VERTEX
  8
0
 10
4.95042
 20
6.00049
 30
0.0
 40
0
 41
0
  0
VERTEX
  8
0
 10
4.94819
 20
6.00825
 30
0.0
 40
0
 41
0
  0
VERTEX
  8
0
 10
4.94472
 20
6.02001
 30
0.0
 40
0
 41
0
  0
VERTEX
  8
0
 10
4.92671
 20
6.07986
 30
0.0
 40
0
 41
0
  0
VERTEX
  8
0
 10
4.90489
 20
6.13824
 30
0.0
 40
0
 41
0
  0
VERTEX
  8
0
 10
4.89958
 20
6.14931
 30
0.0
 40
0
 41
0
  0
VERTEX
  8
0
 10
4.89367
 20
6.16151
 30
0.0
 40
0
 41
0
  0
VERTEX
  8
0
 10
4.8546
 20
6.21669
 30
0.0
 40
0
 41
0
  0
VERTEX
  8
0
 10
4.80431
 20
6.26178
 30
0.0
 40
0
 41
0
  0
VERTEX
  8
0
 10
4.79281
 20
6.26893
 30
0.0
 40
0
 41
0
  0
VERTEX
  8
0
 10
4.78825
 20
6.27175
 30
0.0
 40
0
 41
0
  0
VERTEX
  8
0
 10
4.74046
 20
6.29422
 30
0.0
 40
0
 41
0
  0
VERTEX
  8
0
 10
4.7354
 20
6.2959
 30
0.0
 40
0
 41
0
  0
VERTEX
  8
0
 10
4.7276
 20
6.2985
 30
0.0
 40
0
 41
0
  0
VERTEX
  8
0
 10
4.68619
 20
6.30811
 30
0.0
 40
0
 41
0
  0
VERTEX
  8
0
 10
4.64828
 20
6.3125
 30
0.0
 40
0
 41
0
  0
VERTEX
  8
0
 10
4.63569
 20
6.3125
 30
0.0
 40
0
 41
0
  0
VERTEX
  8
0
 10
4.63514
 20
6.3125
 30
0.0
 40
0
 41
0
  0
VERTEX
  8
0
 10
4.63396
 20
6.31244
 30
0.0
 40
0
 41
0
  0
VERTEX
  8
0
 10
4.63357
 20
6.31244
 30
0.0
 40
0
 41
0
  0
VERTEX
  8
0
 10
4.62944
 20
6.31256
 30
0.0
 40
0
 41
0
  0
VERTEX
  8
0
 10
4.58822
 20
6.30881
 30
0.0
 40
0
 41
0
  0
VERTEX
  8
0
 10
4.58415
 20
6.308
 30
0.0
 40
0
 41
0
  0
VERTEX
  8
0
 10
4.55865
 20
6.30365
 30
0.0
 40
0
 41
0
  0
VERTEX
  8
0
 10
4.4854
 20
6.27229
 30
0.0
 40
0
 41
0
  0
VERTEX
  8
0
 10
4.40631
 20
6.20638
 30
0.0
 40
0
 41
0
  0
VERTEX
  8
0
 10
4.35379
 20
6.11719
 30
0.0
 40
0
 41
0
  0
VERTEX
  8
0
 10
4.33475
 20
6.03797
 30
0.0
 40
0
 41
0
  0
VERTEX
  8
0
 10
4.33475
 20
6.01156
 30
0.0
 40
0
 41
0
  0
VERTEX
  8
0
 10
4.33475
 20
5.98232
 30
0.0
 40
0
 41
0
  0
VERTEX
  8
0
 10
4.35835
 20
5.89447
 30
0.0
 40
0
 41
0
  0
VERTEX
  8
0
 10
4.42285
 20
5.79883
 30
0.0
 40
0
 41
0
  0
VERTEX
  8
0
 10
4.5185
 20
5.73432
 30
0.0
 40
0
 41
0
  0
VERTEX
  8
0
 10
4.60639
 20
5.71067
 30
0.0
 40
0
 41
0
  0
VERTEX
  8
0
 10
4.63569
 20
5.71067
 30
0.0
 40
0
 41
0
  0
VERTEX
  8
0
 10
4.65201
 20
5.71067
 30
0.0
 40
0
 41
0
  0
VERTEX
  8
0
 10
4.69581
 20
5.71669
 30
0.0
 40
0
 41
0
  0
VERTEX
  8
0
 10
4.70107
 20
5.71783
 30
0.0
 40
0
 41
0
  0
VERTEX
  8
0
 10
4.70714
 20
5.71767
 30
0.0
 40
0
 41
0
  0
VERTEX
  8
0
 10
4.73665
 20
5.71436
 30
0.0
 40
0
 41
0
  0
VERTEX
  8
0
 10
4.76139
 20
5.70019
 30
0.0
 40
0
 41
0
  0
VERTEX
  8
0
 10
4.76514
 20
5.69456
 30
0.0
 40
0
 41
0
  0
VERTEX
  8
0
 10
4.77106
 20
5.68554
 30
0.0
 40
0
 41
0
  0
VERTEX
  8
0
 10
4.78228
 20
5.63721
 30
0.0
 40
0
 41
0
  0
VERTEX
  8
0
 10
4.77246
 20
5.58832
 30
0.0
 40
0
 41
0
  0
VERTEX
  8
0
 10
4.76785
 20
5.579
 30
0.0
 40
0
 41
0
  0
VERTEX
  8
0
 10
4.76531
 20
5.57389
 30
0.0
 40
0
 41
0
  0
VERTEX
  8
0
 10
4.73475
 20
5.52642
 30
0.0
 40
0
 41
0
  0
VERTEX
  8
0
 10
4.73139
 20
5.52181
 30
0.0
 40
0
 41
0
  0
VERTEX
  8
0
 10
4.69889
 20
5.47775
 30
0.0
 40
0
 41
0
  0
VERTEX
  8
0
 10
4.5306
 20
5.2615
 30
0.0
 40
0
 41
0
  0
VERTEX
  8
0
 10
4.36501
 20
5.04351
 30
0.0
 40
0
 41
0
  0
VERTEX
  8
0
 10
4.33388
 20
4.99854
 30
0.0
 40
0
 41
0
  0
VERTEX
  8
0
 10
4.2991
 20
4.94846
 30
0.0
 40
0
 41
0
  0
VERTEX
  8
0
 10
4.21317
 20
4.78543
 30
0.0
 40
0
 41
0
  0
VERTEX
  8
0
 10
4.1429
 20
4.57069
 30
0.0
 40
0
 41
0
  0
VERTEX
  8
0
 10
4.12185
 20
4.35883
 30
0.0
 40
0
 41
0
  0
VERTEX
  8
0
 10
4.14887
 20
4.15429
 30
0.0
 40
0
 41
0
  0
VERTEX
  8
0
 10
4.22271
 20
3.96143
 30
0.0
 40
0
 41
0
  0
VERTEX
  8
0
 10
4.34224
 20
3.78472
 30
0.0
 40
0
 41
0
  0
VERTEX
  8
0
 10
4.50624
 20
3.62853
 30
0.0
 40
0
 41
0
  0
VERTEX
  8
0
 10
4.65924
 20
3.52522
 30
0.0
 40
0
 41
0
  0
VERTEX
  8
0
 10
4.7136
 20
3.49735
 30
0.0
 40
0
 41
0
  0
VERTEX
  8
0
 10
4.73346
 20
3.48719
 30
0.0
 40
0
 41
0
  0
VERTEX
  8
0
 10
4.94043
 20
3.39654
 30
0.0
 40
0
 41
0
  0
VERTEX
  8
0
 10
4.96164
 20
3.38721
 30
0.0
 40
0
 41
0
  0
VERTEX
  8
0
 10
4.95708
 20
3.3801
 30
0.0
 40
0
 41
0
  0
VERTEX
  8
0
 10
4.94081
 20
3.36029
 30
0.0
 40
0
 41
0
  0
VERTEX
  8
0
 10
4.92057
 20
3.33453
 30
0.0
 40
0
 41
0
  0
VERTEX
  8
0
 10
4.90956
 20
3.30653
 30
0.0
 40
0
 41
0
  0
VERTEX
  8
0
 10
4.91265
 20
3.28043
 30
0.0
 40
0
 41
0
  0
VERTEX
  8
0
 10
4.91635
 20
3.273
 30
0.0
 40
0
 41
0
  0
VERTEX
  8
0
 10
4.92008
 20
3.26546
 30
0.0
 40
0
 41
0
  0
VERTEX
  8
0
 10
4.93826
 20
3.2461
 30
0.0
 40
0
 41
0
  0
VERTEX
  8
0
 10
4.96625
 20
3.234
 30
0.0
 40
0
 41
0
  0
VERTEX
  8
0
 10
4.99761
 20
3.23101
 30
0.0
 40
0
 41
0
  0
VERTEX
  8
0
 10
5.02171
 20
3.23128
 30
0.0
 40
0
 41
0
  0
VERTEX
  8
0
 10
5.02974
 20
3.23122
 30
0.0
 40
0
 41
0
  0
VERTEX
  8
0
 10
5.11388
 20
3.23113
 30
0.0
 40
0
 41
0
  0
VERTEX
  8
0
 10
5.95562
 20
3.23113
 30
0.0
 40
0
 41
0
  0
VERTEX
  8
0
 10
6.03982
 20
3.23118
 30
0.0
 40
0
 41
0
  0
VERTEX
  8
0
 10
6.04719
 20
3.23118
 30
0.0
 40
0
 41
0
  0
VERTEX
  8
0
 10
6.06939
 20
3.23172
 30
0.0
 40
0
 41
0
  0
VERTEX
  8
0
 10
6.09776
 20
3.236
 30
0.0
 40
0
 41
0
  0
VERTEX
  8
0
 10
6.12267
 20
3.24832
 30
0.0
 40
0
 41
0
  0
VERTEX
  8
0
 10
6.13851
 20
3.26606
 30
0.0
 40
0
 41
0
  0
VERTEX
  8
0
 10
6.14182
 20
3.27289
 30
0.0
 40
0
 41
0
  0
VERTEX
  8
0
 10
6.14556
 20
3.28076
 30
0.0
 40
0
 41
0
  0
VERTEX
  8
0
 10
6.14914
 20
3.308
 30
0.0
 40
0
 41
0
  0
VERTEX
  8
0
 10
6.13693
 20
3.33594
 30
0.0
 40
0
 41
0
  0
VERTEX
  8
0
 10
6.11143
 20
3.36094
 30
0.0
 40
0
 41
0
  0
VERTEX
  8
0
 10
6.08708
 20
3.38053
 30
0.0
 40
0
 41
0
  0
VERTEX
  8
0
 10
6.07915
 20
3.38721
 30
0.0
 40
0
 41
0
  0
VERTEX
  8
0
 10
6.12207
 20
3.40332
 30
0.0
 40
0
 41
0
  0
VERTEX
  8
0
 10
6.324
 20
3.48844
 30
0.0
 40
0
 41
0
  0
VERTEX
  8
0
 10
6.50851
 20
3.59164
 30
0.0
 40
0
 41
0
  0
VERTEX
  8
0
 10
6.54275
 20
3.61675
 30
0.0
 40
0
 41
0
  0
VERTEX
  8
0
 10
6.58051
 20
3.64447
 30
0.0
 40
0
 41
0
  0
VERTEX
  8
0
 10
6.6849
 20
3.73969
 30
0.0
 40
0
 41
0
  0
VERTEX
  8
0
 10
6.79779
 20
3.87706
 30
0.0
 40
0
 41
0
  0
VERTEX
  8
0
 10
6.88081
 20
4.02636
 30
0.0
 40
0
 41
0
  0
VERTEX
  8
0
 10
6.93349
 20
4.18517
 30
0.0
 40
0
 41
0
  0
VERTEX
  8
0
 10
6.95514
 20
4.35101
 30
0.0
 40
0
 41
0
  0
VERTEX
  8
0
 10
6.94521
 20
4.52138
 30
0.0
 40
0
 41
0
  0
VERTEX
  8
0
 10
6.9031
 20
4.69385
 30
0.0
 40
0
 41
0
  0
VERTEX
  8
0
 10
6.85032
 20
4.82471
 30
0.0
 40
0
 41
0
  0
VERTEX
  8
0
 10
6.82835
 20
4.86594
 30
0.0
 40
0
 41
0
  0
VERTEX
  8
0
 10
6.81071
 20
4.89899
 30
0.0
 40
0
 41
0
  0
VERTEX
  8
0
 10
6.70871
 20
5.05414
 30
0.0
 40
0
 41
0
  0
VERTEX
  8
0
 10
6.59517
 20
5.20117
 30
0.0
 40
0
 41
0
  0
VERTEX
  8
0
 10
6.57172
 20
5.23008
 30
0.0
 40
0
 41
0
  0
SEQEND
 8
0
  0
ENDSEC
  0
EOF
