<?xml version="1.0" encoding="iso-8859-1"?>
<!-- Generator: Adobe Illustrator 16.0.0, SVG Export Plug-In . SVG Version: 6.00 Build 0)  -->
<!DOCTYPE svg PUBLIC "-//W3C//DTD SVG 1.1//EN" "http://www.w3.org/Graphics/SVG/1.1/DTD/svg11.dtd">
<svg xmlns="http://www.w3.org/2000/svg" xmlns:xlink="http://www.w3.org/1999/xlink" version="1.1" id="Capa_1" x="0px" y="0px" width="512px" height="512px" viewBox="0 0 64 64" style="enable-background:new 0 0 64 64;" xml:space="preserve">
<g>
	<g>
		<g id="circle_21_">
			<g>
				<path d="M32,25c-1.104,0-2,0.896-2,2s0.896,2,2,2c1.104,0,2-0.896,2-2S33.104,25,32,25z M32,18c-4.971,0-9,4.029-9,9      s5.546,21,9,21s9-16.029,9-21S36.971,18,32,18z M32,31c-2.209,0-4-1.791-4-4s1.791-4,4-4s4,1.791,4,4S34.209,31,32,31z M32,0      C14.327,0,0,14.327,0,32s14.327,32,32,32s32-14.327,32-32S49.673,0,32,0z M32,50c-3.678,0-11-16.925-11-23s4.925-11,11-11      s11,4.925,11,11S35.68,50,32,50z" fill="#00adf5"/>
			</g>
		</g>
	</g>
</g>
<g>
</g>
<g>
</g>
<g>
</g>
<g>
</g>
<g>
</g>
<g>
</g>
<g>
</g>
<g>
</g>
<g>
</g>
<g>
</g>
<g>
</g>
<g>
</g>
<g>
</g>
<g>
</g>
<g>
</g>
</svg>
