G75*
%MOIN*%
%OFA0B0*%
%FSLAX25Y25*%
%IPPOS*%
%LPD*%
%AMOC8*
5,1,8,0,0,1.08239X$1,22.5*
%
%ADD10C,0.00400*%
%ADD11C,0.00200*%
%ADD12C,0.00500*%
D10*
X0208269Y0045332D02*
X0208269Y0046099D01*
X0209036Y0046867D01*
X0212873Y0046867D01*
X0209804Y0046867D02*
X0209804Y0044565D01*
X0210571Y0043797D01*
X0212873Y0043797D01*
X0212873Y0042263D02*
X0212873Y0040728D01*
X0213640Y0041495D02*
X0210571Y0041495D01*
X0209804Y0042263D01*
X0217304Y0040344D02*
X0217304Y0038042D01*
X0218071Y0037275D01*
X0219606Y0037275D01*
X0220373Y0038042D01*
X0220373Y0040344D01*
X0221908Y0040344D02*
X0217304Y0040344D01*
X0212873Y0038426D02*
X0212106Y0039193D01*
X0210571Y0039193D01*
X0209804Y0038426D01*
X0209804Y0036891D01*
X0210571Y0036124D01*
X0212106Y0036124D01*
X0212873Y0036891D01*
X0212873Y0038426D01*
X0218838Y0033438D02*
X0220373Y0034973D01*
X0220373Y0035740D01*
X0220373Y0033438D02*
X0217304Y0033438D01*
X0213640Y0033822D02*
X0210571Y0033822D01*
X0209804Y0034589D01*
X0212873Y0034589D02*
X0212873Y0033055D01*
X0212106Y0031520D02*
X0210571Y0031520D01*
X0209804Y0030753D01*
X0209804Y0029218D01*
X0210571Y0028451D01*
X0212106Y0028451D01*
X0212873Y0029218D01*
X0212873Y0030753D01*
X0212106Y0031520D01*
X0217304Y0031136D02*
X0220373Y0031136D01*
X0220373Y0030369D01*
X0221908Y0031136D02*
X0222675Y0031136D01*
X0219606Y0028834D02*
X0220373Y0028067D01*
X0220373Y0025765D01*
X0221908Y0025765D02*
X0217304Y0025765D01*
X0217304Y0028067D01*
X0218071Y0028834D01*
X0219606Y0028834D01*
X0217304Y0030369D02*
X0217304Y0031904D01*
X0212873Y0026916D02*
X0212873Y0026149D01*
X0211338Y0024614D01*
X0209804Y0024614D02*
X0212873Y0024614D01*
X0212106Y0023080D02*
X0211338Y0022312D01*
X0211338Y0020010D01*
X0209804Y0020010D02*
X0214408Y0020010D01*
X0214408Y0022312D01*
X0213640Y0023080D01*
X0212106Y0023080D01*
X0217304Y0023463D02*
X0217304Y0021929D01*
X0218071Y0021161D01*
X0219606Y0021161D01*
X0220373Y0021929D01*
X0220373Y0023463D01*
X0219606Y0024231D01*
X0218838Y0024231D01*
X0218838Y0021161D01*
X0220373Y0019627D02*
X0220373Y0018859D01*
X0218838Y0017325D01*
X0217304Y0017325D02*
X0220373Y0017325D01*
X0220373Y0015790D02*
X0216536Y0015790D01*
X0215769Y0015023D01*
X0215769Y0014255D01*
X0217304Y0013488D02*
X0217304Y0015790D01*
X0217304Y0013488D02*
X0218071Y0012721D01*
X0220373Y0012721D01*
X0217304Y0011186D02*
X0217304Y0008117D01*
X0221908Y0008117D01*
X0221908Y0046483D02*
X0218838Y0046483D01*
X0217304Y0048017D01*
X0218838Y0049552D01*
X0221908Y0049552D01*
X0221140Y0051087D02*
X0218071Y0051087D01*
X0221140Y0054156D01*
X0218071Y0054156D01*
X0217304Y0053389D01*
X0217304Y0051854D01*
X0218071Y0051087D01*
X0221140Y0051087D02*
X0221908Y0051854D01*
X0221908Y0053389D01*
X0221140Y0054156D01*
X0218071Y0055691D02*
X0217304Y0055691D01*
X0217304Y0056458D01*
X0218071Y0056458D01*
X0218071Y0055691D01*
X0217304Y0057993D02*
X0217304Y0061062D01*
X0217304Y0062597D02*
X0217304Y0063364D01*
X0218071Y0063364D01*
X0218071Y0062597D01*
X0217304Y0062597D01*
X0218071Y0064899D02*
X0221140Y0067968D01*
X0218071Y0067968D01*
X0217304Y0067201D01*
X0217304Y0065666D01*
X0218071Y0064899D01*
X0221140Y0064899D01*
X0221908Y0065666D01*
X0221908Y0067201D01*
X0221140Y0067968D01*
X0221908Y0059527D02*
X0217304Y0059527D01*
X0220373Y0057993D02*
X0221908Y0059527D01*
X0212873Y0055307D02*
X0212106Y0056074D01*
X0211338Y0056074D01*
X0211338Y0053005D01*
X0210571Y0053005D02*
X0212106Y0053005D01*
X0212873Y0053772D01*
X0212873Y0055307D01*
X0209804Y0055307D02*
X0209804Y0053772D01*
X0210571Y0053005D01*
X0210571Y0051470D02*
X0209804Y0050703D01*
X0209804Y0048401D01*
X0208269Y0048401D02*
X0212873Y0048401D01*
X0212873Y0050703D01*
X0212106Y0051470D01*
X0210571Y0051470D01*
D11*
X0141270Y0019037D02*
X0140536Y0019037D01*
X0140903Y0019037D02*
X0140903Y0017202D01*
X0141270Y0016835D01*
X0141637Y0016835D01*
X0142004Y0017202D01*
X0139794Y0016835D02*
X0138326Y0018303D01*
X0138326Y0018670D01*
X0138693Y0019037D01*
X0139427Y0019037D01*
X0139794Y0018670D01*
X0139794Y0016835D02*
X0138326Y0016835D01*
D12*
X0129604Y0031735D02*
X0127104Y0031735D01*
X0127104Y0051735D01*
X0129604Y0051735D01*
X0135104Y0051735D02*
X0139104Y0051735D01*
X0145104Y0051735D02*
X0149104Y0051735D01*
X0154604Y0051735D02*
X0157104Y0051735D01*
X0157104Y0031735D01*
X0154604Y0031735D01*
X0155604Y0030735D02*
X0155604Y0025735D01*
X0149104Y0031735D02*
X0145604Y0031735D01*
X0139104Y0031735D02*
X0135104Y0031735D01*
M02*
