G75*
%MOIN*%
%OFA0B0*%
%FSLAX25Y25*%
%IPPOS*%
%LPD*%
%AMOC8*
5,1,8,0,0,1.08239X$1,22.5*
%
%ADD10C,0.00000*%
%ADD11C,0.07400*%
%ADD12C,0.12661*%
%ADD13R,0.04331X0.09449*%
%ADD14R,0.02200X0.05000*%
%ADD15R,0.05000X0.02200*%
%ADD16R,0.07480X0.04331*%
%ADD17R,0.04331X0.03937*%
%ADD18R,0.03543X0.02756*%
%ADD19R,0.04724X0.02165*%
%ADD20R,0.03937X0.04331*%
%ADD21R,0.03346X0.03543*%
%ADD22R,0.05512X0.04134*%
%ADD23C,0.01600*%
%ADD24C,0.02400*%
%ADD25C,0.02800*%
%ADD26C,0.01200*%
D10*
X0058979Y0013610D02*
X0058979Y0063610D01*
X0058982Y0063852D01*
X0058991Y0064093D01*
X0059005Y0064334D01*
X0059026Y0064575D01*
X0059052Y0064815D01*
X0059084Y0065055D01*
X0059122Y0065294D01*
X0059165Y0065531D01*
X0059215Y0065768D01*
X0059270Y0066003D01*
X0059330Y0066237D01*
X0059397Y0066469D01*
X0059468Y0066700D01*
X0059546Y0066929D01*
X0059629Y0067156D01*
X0059717Y0067381D01*
X0059811Y0067604D01*
X0059910Y0067824D01*
X0060015Y0068042D01*
X0060124Y0068257D01*
X0060239Y0068470D01*
X0060359Y0068680D01*
X0060484Y0068886D01*
X0060614Y0069090D01*
X0060749Y0069291D01*
X0060889Y0069488D01*
X0061033Y0069682D01*
X0061182Y0069872D01*
X0061336Y0070058D01*
X0061494Y0070241D01*
X0061656Y0070420D01*
X0061823Y0070595D01*
X0061994Y0070766D01*
X0062169Y0070933D01*
X0062348Y0071095D01*
X0062531Y0071253D01*
X0062717Y0071407D01*
X0062907Y0071556D01*
X0063101Y0071700D01*
X0063298Y0071840D01*
X0063499Y0071975D01*
X0063703Y0072105D01*
X0063909Y0072230D01*
X0064119Y0072350D01*
X0064332Y0072465D01*
X0064547Y0072574D01*
X0064765Y0072679D01*
X0064985Y0072778D01*
X0065208Y0072872D01*
X0065433Y0072960D01*
X0065660Y0073043D01*
X0065889Y0073121D01*
X0066120Y0073192D01*
X0066352Y0073259D01*
X0066586Y0073319D01*
X0066821Y0073374D01*
X0067058Y0073424D01*
X0067295Y0073467D01*
X0067534Y0073505D01*
X0067774Y0073537D01*
X0068014Y0073563D01*
X0068255Y0073584D01*
X0068496Y0073598D01*
X0068737Y0073607D01*
X0068979Y0073610D01*
X0220854Y0073610D01*
X0221096Y0073607D01*
X0221337Y0073598D01*
X0221578Y0073584D01*
X0221819Y0073563D01*
X0222059Y0073537D01*
X0222299Y0073505D01*
X0222538Y0073467D01*
X0222775Y0073424D01*
X0223012Y0073374D01*
X0223247Y0073319D01*
X0223481Y0073259D01*
X0223713Y0073192D01*
X0223944Y0073121D01*
X0224173Y0073043D01*
X0224400Y0072960D01*
X0224625Y0072872D01*
X0224848Y0072778D01*
X0225068Y0072679D01*
X0225286Y0072574D01*
X0225501Y0072465D01*
X0225714Y0072350D01*
X0225924Y0072230D01*
X0226130Y0072105D01*
X0226334Y0071975D01*
X0226535Y0071840D01*
X0226732Y0071700D01*
X0226926Y0071556D01*
X0227116Y0071407D01*
X0227302Y0071253D01*
X0227485Y0071095D01*
X0227664Y0070933D01*
X0227839Y0070766D01*
X0228010Y0070595D01*
X0228177Y0070420D01*
X0228339Y0070241D01*
X0228497Y0070058D01*
X0228651Y0069872D01*
X0228800Y0069682D01*
X0228944Y0069488D01*
X0229084Y0069291D01*
X0229219Y0069090D01*
X0229349Y0068886D01*
X0229474Y0068680D01*
X0229594Y0068470D01*
X0229709Y0068257D01*
X0229818Y0068042D01*
X0229923Y0067824D01*
X0230022Y0067604D01*
X0230116Y0067381D01*
X0230204Y0067156D01*
X0230287Y0066929D01*
X0230365Y0066700D01*
X0230436Y0066469D01*
X0230503Y0066237D01*
X0230563Y0066003D01*
X0230618Y0065768D01*
X0230668Y0065531D01*
X0230711Y0065294D01*
X0230749Y0065055D01*
X0230781Y0064815D01*
X0230807Y0064575D01*
X0230828Y0064334D01*
X0230842Y0064093D01*
X0230851Y0063852D01*
X0230854Y0063610D01*
X0230854Y0013610D01*
X0230851Y0013368D01*
X0230842Y0013127D01*
X0230828Y0012886D01*
X0230807Y0012645D01*
X0230781Y0012405D01*
X0230749Y0012165D01*
X0230711Y0011926D01*
X0230668Y0011689D01*
X0230618Y0011452D01*
X0230563Y0011217D01*
X0230503Y0010983D01*
X0230436Y0010751D01*
X0230365Y0010520D01*
X0230287Y0010291D01*
X0230204Y0010064D01*
X0230116Y0009839D01*
X0230022Y0009616D01*
X0229923Y0009396D01*
X0229818Y0009178D01*
X0229709Y0008963D01*
X0229594Y0008750D01*
X0229474Y0008540D01*
X0229349Y0008334D01*
X0229219Y0008130D01*
X0229084Y0007929D01*
X0228944Y0007732D01*
X0228800Y0007538D01*
X0228651Y0007348D01*
X0228497Y0007162D01*
X0228339Y0006979D01*
X0228177Y0006800D01*
X0228010Y0006625D01*
X0227839Y0006454D01*
X0227664Y0006287D01*
X0227485Y0006125D01*
X0227302Y0005967D01*
X0227116Y0005813D01*
X0226926Y0005664D01*
X0226732Y0005520D01*
X0226535Y0005380D01*
X0226334Y0005245D01*
X0226130Y0005115D01*
X0225924Y0004990D01*
X0225714Y0004870D01*
X0225501Y0004755D01*
X0225286Y0004646D01*
X0225068Y0004541D01*
X0224848Y0004442D01*
X0224625Y0004348D01*
X0224400Y0004260D01*
X0224173Y0004177D01*
X0223944Y0004099D01*
X0223713Y0004028D01*
X0223481Y0003961D01*
X0223247Y0003901D01*
X0223012Y0003846D01*
X0222775Y0003796D01*
X0222538Y0003753D01*
X0222299Y0003715D01*
X0222059Y0003683D01*
X0221819Y0003657D01*
X0221578Y0003636D01*
X0221337Y0003622D01*
X0221096Y0003613D01*
X0220854Y0003610D01*
X0068979Y0003610D01*
X0068737Y0003613D01*
X0068496Y0003622D01*
X0068255Y0003636D01*
X0068014Y0003657D01*
X0067774Y0003683D01*
X0067534Y0003715D01*
X0067295Y0003753D01*
X0067058Y0003796D01*
X0066821Y0003846D01*
X0066586Y0003901D01*
X0066352Y0003961D01*
X0066120Y0004028D01*
X0065889Y0004099D01*
X0065660Y0004177D01*
X0065433Y0004260D01*
X0065208Y0004348D01*
X0064985Y0004442D01*
X0064765Y0004541D01*
X0064547Y0004646D01*
X0064332Y0004755D01*
X0064119Y0004870D01*
X0063909Y0004990D01*
X0063703Y0005115D01*
X0063499Y0005245D01*
X0063298Y0005380D01*
X0063101Y0005520D01*
X0062907Y0005664D01*
X0062717Y0005813D01*
X0062531Y0005967D01*
X0062348Y0006125D01*
X0062169Y0006287D01*
X0061994Y0006454D01*
X0061823Y0006625D01*
X0061656Y0006800D01*
X0061494Y0006979D01*
X0061336Y0007162D01*
X0061182Y0007348D01*
X0061033Y0007538D01*
X0060889Y0007732D01*
X0060749Y0007929D01*
X0060614Y0008130D01*
X0060484Y0008334D01*
X0060359Y0008540D01*
X0060239Y0008750D01*
X0060124Y0008963D01*
X0060015Y0009178D01*
X0059910Y0009396D01*
X0059811Y0009616D01*
X0059717Y0009839D01*
X0059629Y0010064D01*
X0059546Y0010291D01*
X0059468Y0010520D01*
X0059397Y0010751D01*
X0059330Y0010983D01*
X0059270Y0011217D01*
X0059215Y0011452D01*
X0059165Y0011689D01*
X0059122Y0011926D01*
X0059084Y0012165D01*
X0059052Y0012405D01*
X0059026Y0012645D01*
X0059005Y0012886D01*
X0058991Y0013127D01*
X0058982Y0013368D01*
X0058979Y0013610D01*
X0068920Y0029751D02*
X0068922Y0029844D01*
X0068928Y0029936D01*
X0068938Y0030028D01*
X0068952Y0030119D01*
X0068969Y0030210D01*
X0068991Y0030300D01*
X0069016Y0030389D01*
X0069045Y0030477D01*
X0069078Y0030563D01*
X0069115Y0030648D01*
X0069155Y0030732D01*
X0069199Y0030813D01*
X0069246Y0030893D01*
X0069296Y0030971D01*
X0069350Y0031046D01*
X0069407Y0031119D01*
X0069467Y0031189D01*
X0069530Y0031257D01*
X0069596Y0031322D01*
X0069664Y0031384D01*
X0069735Y0031444D01*
X0069809Y0031500D01*
X0069885Y0031553D01*
X0069963Y0031602D01*
X0070043Y0031649D01*
X0070125Y0031691D01*
X0070209Y0031731D01*
X0070294Y0031766D01*
X0070381Y0031798D01*
X0070469Y0031827D01*
X0070558Y0031851D01*
X0070648Y0031872D01*
X0070739Y0031888D01*
X0070831Y0031901D01*
X0070923Y0031910D01*
X0071016Y0031915D01*
X0071108Y0031916D01*
X0071201Y0031913D01*
X0071293Y0031906D01*
X0071385Y0031895D01*
X0071476Y0031880D01*
X0071567Y0031862D01*
X0071657Y0031839D01*
X0071745Y0031813D01*
X0071833Y0031783D01*
X0071919Y0031749D01*
X0072003Y0031712D01*
X0072086Y0031670D01*
X0072167Y0031626D01*
X0072247Y0031578D01*
X0072324Y0031527D01*
X0072398Y0031472D01*
X0072471Y0031414D01*
X0072541Y0031354D01*
X0072608Y0031290D01*
X0072672Y0031224D01*
X0072734Y0031154D01*
X0072792Y0031083D01*
X0072847Y0031009D01*
X0072899Y0030932D01*
X0072948Y0030853D01*
X0072994Y0030773D01*
X0073036Y0030690D01*
X0073074Y0030606D01*
X0073109Y0030520D01*
X0073140Y0030433D01*
X0073167Y0030345D01*
X0073190Y0030255D01*
X0073210Y0030165D01*
X0073226Y0030074D01*
X0073238Y0029982D01*
X0073246Y0029890D01*
X0073250Y0029797D01*
X0073250Y0029705D01*
X0073246Y0029612D01*
X0073238Y0029520D01*
X0073226Y0029428D01*
X0073210Y0029337D01*
X0073190Y0029247D01*
X0073167Y0029157D01*
X0073140Y0029069D01*
X0073109Y0028982D01*
X0073074Y0028896D01*
X0073036Y0028812D01*
X0072994Y0028729D01*
X0072948Y0028649D01*
X0072899Y0028570D01*
X0072847Y0028493D01*
X0072792Y0028419D01*
X0072734Y0028348D01*
X0072672Y0028278D01*
X0072608Y0028212D01*
X0072541Y0028148D01*
X0072471Y0028088D01*
X0072398Y0028030D01*
X0072324Y0027975D01*
X0072247Y0027924D01*
X0072168Y0027876D01*
X0072086Y0027832D01*
X0072003Y0027790D01*
X0071919Y0027753D01*
X0071833Y0027719D01*
X0071745Y0027689D01*
X0071657Y0027663D01*
X0071567Y0027640D01*
X0071476Y0027622D01*
X0071385Y0027607D01*
X0071293Y0027596D01*
X0071201Y0027589D01*
X0071108Y0027586D01*
X0071016Y0027587D01*
X0070923Y0027592D01*
X0070831Y0027601D01*
X0070739Y0027614D01*
X0070648Y0027630D01*
X0070558Y0027651D01*
X0070469Y0027675D01*
X0070381Y0027704D01*
X0070294Y0027736D01*
X0070209Y0027771D01*
X0070125Y0027811D01*
X0070043Y0027853D01*
X0069963Y0027900D01*
X0069885Y0027949D01*
X0069809Y0028002D01*
X0069735Y0028058D01*
X0069664Y0028118D01*
X0069596Y0028180D01*
X0069530Y0028245D01*
X0069467Y0028313D01*
X0069407Y0028383D01*
X0069350Y0028456D01*
X0069296Y0028531D01*
X0069246Y0028609D01*
X0069199Y0028689D01*
X0069155Y0028770D01*
X0069115Y0028854D01*
X0069078Y0028939D01*
X0069045Y0029025D01*
X0069016Y0029113D01*
X0068991Y0029202D01*
X0068969Y0029292D01*
X0068952Y0029383D01*
X0068938Y0029474D01*
X0068928Y0029566D01*
X0068922Y0029658D01*
X0068920Y0029751D01*
X0068920Y0047468D02*
X0068922Y0047561D01*
X0068928Y0047653D01*
X0068938Y0047745D01*
X0068952Y0047836D01*
X0068969Y0047927D01*
X0068991Y0048017D01*
X0069016Y0048106D01*
X0069045Y0048194D01*
X0069078Y0048280D01*
X0069115Y0048365D01*
X0069155Y0048449D01*
X0069199Y0048530D01*
X0069246Y0048610D01*
X0069296Y0048688D01*
X0069350Y0048763D01*
X0069407Y0048836D01*
X0069467Y0048906D01*
X0069530Y0048974D01*
X0069596Y0049039D01*
X0069664Y0049101D01*
X0069735Y0049161D01*
X0069809Y0049217D01*
X0069885Y0049270D01*
X0069963Y0049319D01*
X0070043Y0049366D01*
X0070125Y0049408D01*
X0070209Y0049448D01*
X0070294Y0049483D01*
X0070381Y0049515D01*
X0070469Y0049544D01*
X0070558Y0049568D01*
X0070648Y0049589D01*
X0070739Y0049605D01*
X0070831Y0049618D01*
X0070923Y0049627D01*
X0071016Y0049632D01*
X0071108Y0049633D01*
X0071201Y0049630D01*
X0071293Y0049623D01*
X0071385Y0049612D01*
X0071476Y0049597D01*
X0071567Y0049579D01*
X0071657Y0049556D01*
X0071745Y0049530D01*
X0071833Y0049500D01*
X0071919Y0049466D01*
X0072003Y0049429D01*
X0072086Y0049387D01*
X0072167Y0049343D01*
X0072247Y0049295D01*
X0072324Y0049244D01*
X0072398Y0049189D01*
X0072471Y0049131D01*
X0072541Y0049071D01*
X0072608Y0049007D01*
X0072672Y0048941D01*
X0072734Y0048871D01*
X0072792Y0048800D01*
X0072847Y0048726D01*
X0072899Y0048649D01*
X0072948Y0048570D01*
X0072994Y0048490D01*
X0073036Y0048407D01*
X0073074Y0048323D01*
X0073109Y0048237D01*
X0073140Y0048150D01*
X0073167Y0048062D01*
X0073190Y0047972D01*
X0073210Y0047882D01*
X0073226Y0047791D01*
X0073238Y0047699D01*
X0073246Y0047607D01*
X0073250Y0047514D01*
X0073250Y0047422D01*
X0073246Y0047329D01*
X0073238Y0047237D01*
X0073226Y0047145D01*
X0073210Y0047054D01*
X0073190Y0046964D01*
X0073167Y0046874D01*
X0073140Y0046786D01*
X0073109Y0046699D01*
X0073074Y0046613D01*
X0073036Y0046529D01*
X0072994Y0046446D01*
X0072948Y0046366D01*
X0072899Y0046287D01*
X0072847Y0046210D01*
X0072792Y0046136D01*
X0072734Y0046065D01*
X0072672Y0045995D01*
X0072608Y0045929D01*
X0072541Y0045865D01*
X0072471Y0045805D01*
X0072398Y0045747D01*
X0072324Y0045692D01*
X0072247Y0045641D01*
X0072168Y0045593D01*
X0072086Y0045549D01*
X0072003Y0045507D01*
X0071919Y0045470D01*
X0071833Y0045436D01*
X0071745Y0045406D01*
X0071657Y0045380D01*
X0071567Y0045357D01*
X0071476Y0045339D01*
X0071385Y0045324D01*
X0071293Y0045313D01*
X0071201Y0045306D01*
X0071108Y0045303D01*
X0071016Y0045304D01*
X0070923Y0045309D01*
X0070831Y0045318D01*
X0070739Y0045331D01*
X0070648Y0045347D01*
X0070558Y0045368D01*
X0070469Y0045392D01*
X0070381Y0045421D01*
X0070294Y0045453D01*
X0070209Y0045488D01*
X0070125Y0045528D01*
X0070043Y0045570D01*
X0069963Y0045617D01*
X0069885Y0045666D01*
X0069809Y0045719D01*
X0069735Y0045775D01*
X0069664Y0045835D01*
X0069596Y0045897D01*
X0069530Y0045962D01*
X0069467Y0046030D01*
X0069407Y0046100D01*
X0069350Y0046173D01*
X0069296Y0046248D01*
X0069246Y0046326D01*
X0069199Y0046406D01*
X0069155Y0046487D01*
X0069115Y0046571D01*
X0069078Y0046656D01*
X0069045Y0046742D01*
X0069016Y0046830D01*
X0068991Y0046919D01*
X0068969Y0047009D01*
X0068952Y0047100D01*
X0068938Y0047191D01*
X0068928Y0047283D01*
X0068922Y0047375D01*
X0068920Y0047468D01*
X0093851Y0061941D02*
X0093853Y0062015D01*
X0093859Y0062089D01*
X0093869Y0062162D01*
X0093883Y0062235D01*
X0093900Y0062307D01*
X0093922Y0062377D01*
X0093947Y0062447D01*
X0093976Y0062515D01*
X0094009Y0062581D01*
X0094045Y0062646D01*
X0094085Y0062708D01*
X0094127Y0062769D01*
X0094173Y0062827D01*
X0094222Y0062882D01*
X0094274Y0062935D01*
X0094329Y0062985D01*
X0094386Y0063031D01*
X0094446Y0063075D01*
X0094508Y0063115D01*
X0094572Y0063152D01*
X0094638Y0063186D01*
X0094706Y0063216D01*
X0094775Y0063242D01*
X0094846Y0063265D01*
X0094917Y0063283D01*
X0094990Y0063298D01*
X0095063Y0063309D01*
X0095137Y0063316D01*
X0095211Y0063319D01*
X0095284Y0063318D01*
X0095358Y0063313D01*
X0095432Y0063304D01*
X0095505Y0063291D01*
X0095577Y0063274D01*
X0095648Y0063254D01*
X0095718Y0063229D01*
X0095786Y0063201D01*
X0095853Y0063170D01*
X0095918Y0063134D01*
X0095981Y0063096D01*
X0096042Y0063054D01*
X0096101Y0063008D01*
X0096157Y0062960D01*
X0096210Y0062909D01*
X0096260Y0062855D01*
X0096308Y0062798D01*
X0096352Y0062739D01*
X0096394Y0062677D01*
X0096432Y0062614D01*
X0096466Y0062548D01*
X0096497Y0062481D01*
X0096524Y0062412D01*
X0096547Y0062342D01*
X0096567Y0062271D01*
X0096583Y0062198D01*
X0096595Y0062125D01*
X0096603Y0062052D01*
X0096607Y0061978D01*
X0096607Y0061904D01*
X0096603Y0061830D01*
X0096595Y0061757D01*
X0096583Y0061684D01*
X0096567Y0061611D01*
X0096547Y0061540D01*
X0096524Y0061470D01*
X0096497Y0061401D01*
X0096466Y0061334D01*
X0096432Y0061268D01*
X0096394Y0061205D01*
X0096352Y0061143D01*
X0096308Y0061084D01*
X0096260Y0061027D01*
X0096210Y0060973D01*
X0096157Y0060922D01*
X0096101Y0060874D01*
X0096042Y0060828D01*
X0095981Y0060786D01*
X0095918Y0060748D01*
X0095853Y0060712D01*
X0095786Y0060681D01*
X0095718Y0060653D01*
X0095648Y0060628D01*
X0095577Y0060608D01*
X0095505Y0060591D01*
X0095432Y0060578D01*
X0095358Y0060569D01*
X0095284Y0060564D01*
X0095211Y0060563D01*
X0095137Y0060566D01*
X0095063Y0060573D01*
X0094990Y0060584D01*
X0094917Y0060599D01*
X0094846Y0060617D01*
X0094775Y0060640D01*
X0094706Y0060666D01*
X0094638Y0060696D01*
X0094572Y0060730D01*
X0094508Y0060767D01*
X0094446Y0060807D01*
X0094386Y0060851D01*
X0094329Y0060897D01*
X0094274Y0060947D01*
X0094222Y0061000D01*
X0094173Y0061055D01*
X0094127Y0061113D01*
X0094085Y0061174D01*
X0094045Y0061236D01*
X0094009Y0061301D01*
X0093976Y0061367D01*
X0093947Y0061435D01*
X0093922Y0061505D01*
X0093900Y0061575D01*
X0093883Y0061647D01*
X0093869Y0061720D01*
X0093859Y0061793D01*
X0093853Y0061867D01*
X0093851Y0061941D01*
X0093851Y0069028D02*
X0093853Y0069102D01*
X0093859Y0069176D01*
X0093869Y0069249D01*
X0093883Y0069322D01*
X0093900Y0069394D01*
X0093922Y0069464D01*
X0093947Y0069534D01*
X0093976Y0069602D01*
X0094009Y0069668D01*
X0094045Y0069733D01*
X0094085Y0069795D01*
X0094127Y0069856D01*
X0094173Y0069914D01*
X0094222Y0069969D01*
X0094274Y0070022D01*
X0094329Y0070072D01*
X0094386Y0070118D01*
X0094446Y0070162D01*
X0094508Y0070202D01*
X0094572Y0070239D01*
X0094638Y0070273D01*
X0094706Y0070303D01*
X0094775Y0070329D01*
X0094846Y0070352D01*
X0094917Y0070370D01*
X0094990Y0070385D01*
X0095063Y0070396D01*
X0095137Y0070403D01*
X0095211Y0070406D01*
X0095284Y0070405D01*
X0095358Y0070400D01*
X0095432Y0070391D01*
X0095505Y0070378D01*
X0095577Y0070361D01*
X0095648Y0070341D01*
X0095718Y0070316D01*
X0095786Y0070288D01*
X0095853Y0070257D01*
X0095918Y0070221D01*
X0095981Y0070183D01*
X0096042Y0070141D01*
X0096101Y0070095D01*
X0096157Y0070047D01*
X0096210Y0069996D01*
X0096260Y0069942D01*
X0096308Y0069885D01*
X0096352Y0069826D01*
X0096394Y0069764D01*
X0096432Y0069701D01*
X0096466Y0069635D01*
X0096497Y0069568D01*
X0096524Y0069499D01*
X0096547Y0069429D01*
X0096567Y0069358D01*
X0096583Y0069285D01*
X0096595Y0069212D01*
X0096603Y0069139D01*
X0096607Y0069065D01*
X0096607Y0068991D01*
X0096603Y0068917D01*
X0096595Y0068844D01*
X0096583Y0068771D01*
X0096567Y0068698D01*
X0096547Y0068627D01*
X0096524Y0068557D01*
X0096497Y0068488D01*
X0096466Y0068421D01*
X0096432Y0068355D01*
X0096394Y0068292D01*
X0096352Y0068230D01*
X0096308Y0068171D01*
X0096260Y0068114D01*
X0096210Y0068060D01*
X0096157Y0068009D01*
X0096101Y0067961D01*
X0096042Y0067915D01*
X0095981Y0067873D01*
X0095918Y0067835D01*
X0095853Y0067799D01*
X0095786Y0067768D01*
X0095718Y0067740D01*
X0095648Y0067715D01*
X0095577Y0067695D01*
X0095505Y0067678D01*
X0095432Y0067665D01*
X0095358Y0067656D01*
X0095284Y0067651D01*
X0095211Y0067650D01*
X0095137Y0067653D01*
X0095063Y0067660D01*
X0094990Y0067671D01*
X0094917Y0067686D01*
X0094846Y0067704D01*
X0094775Y0067727D01*
X0094706Y0067753D01*
X0094638Y0067783D01*
X0094572Y0067817D01*
X0094508Y0067854D01*
X0094446Y0067894D01*
X0094386Y0067938D01*
X0094329Y0067984D01*
X0094274Y0068034D01*
X0094222Y0068087D01*
X0094173Y0068142D01*
X0094127Y0068200D01*
X0094085Y0068261D01*
X0094045Y0068323D01*
X0094009Y0068388D01*
X0093976Y0068454D01*
X0093947Y0068522D01*
X0093922Y0068592D01*
X0093900Y0068662D01*
X0093883Y0068734D01*
X0093869Y0068807D01*
X0093859Y0068880D01*
X0093853Y0068954D01*
X0093851Y0069028D01*
D11*
X0080928Y0052389D03*
X0080928Y0043047D03*
X0080928Y0034173D03*
X0080928Y0024830D03*
D12*
X0071479Y0015775D03*
X0071479Y0061444D03*
D13*
X0160140Y0065185D03*
X0166046Y0065185D03*
X0171951Y0065185D03*
X0177857Y0065185D03*
X0183762Y0065185D03*
X0189668Y0065185D03*
X0195573Y0065185D03*
X0201479Y0065185D03*
X0201479Y0012035D03*
X0195573Y0012035D03*
X0189668Y0012035D03*
X0183762Y0012035D03*
X0177857Y0012035D03*
X0171951Y0012035D03*
X0166046Y0012035D03*
X0160140Y0012035D03*
D14*
X0133127Y0024835D03*
X0129978Y0024835D03*
X0126828Y0024835D03*
X0123679Y0024835D03*
X0120529Y0024835D03*
X0117379Y0024835D03*
X0114230Y0024835D03*
X0111080Y0024835D03*
X0111080Y0058635D03*
X0114230Y0058635D03*
X0117379Y0058635D03*
X0120529Y0058635D03*
X0123679Y0058635D03*
X0126828Y0058635D03*
X0129978Y0058635D03*
X0133127Y0058635D03*
D15*
X0139004Y0052758D03*
X0139004Y0049609D03*
X0139004Y0046459D03*
X0139004Y0043310D03*
X0139004Y0040160D03*
X0139004Y0037010D03*
X0139004Y0033861D03*
X0139004Y0030711D03*
X0105204Y0030711D03*
X0105204Y0033861D03*
X0105204Y0037010D03*
X0105204Y0040160D03*
X0105204Y0043310D03*
X0105204Y0046459D03*
X0105204Y0049609D03*
X0105204Y0052758D03*
D16*
X0100445Y0018137D03*
X0115012Y0018137D03*
X0115012Y0009082D03*
X0100445Y0009082D03*
D17*
X0096700Y0034860D03*
X0090007Y0034860D03*
X0090007Y0042360D03*
X0096700Y0042360D03*
X0096700Y0052360D03*
X0090007Y0052360D03*
D18*
X0092729Y0016169D03*
X0092729Y0011051D03*
X0122104Y0011051D03*
X0122104Y0016169D03*
D19*
X0139485Y0017975D03*
X0149722Y0017975D03*
X0139485Y0014235D03*
X0139485Y0010495D03*
X0149722Y0010495D03*
D20*
X0130229Y0010263D03*
X0130229Y0016956D03*
X0150229Y0023388D03*
X0150229Y0030081D03*
D21*
X0115012Y0066110D03*
X0110445Y0066110D03*
D22*
X0102315Y0068339D03*
X0088142Y0068339D03*
X0088142Y0062630D03*
X0102315Y0062630D03*
D23*
X0139004Y0043310D02*
X0174304Y0043310D01*
X0177729Y0046735D01*
X0189604Y0043610D02*
X0189604Y0065121D01*
X0189668Y0065185D01*
X0183762Y0065185D02*
X0183762Y0040268D01*
X0180854Y0037360D01*
X0146479Y0037360D01*
X0143979Y0034860D01*
X0143979Y0032360D01*
X0142330Y0030711D01*
X0139004Y0030711D01*
X0142079Y0024835D02*
X0146479Y0029235D01*
X0146479Y0032985D01*
X0147729Y0034235D01*
X0193354Y0034235D01*
X0195573Y0036454D01*
X0195573Y0065185D01*
X0201479Y0065185D02*
X0201479Y0048610D01*
X0179904Y0042035D02*
X0178029Y0040160D01*
X0139004Y0040160D01*
X0142079Y0024835D02*
X0133127Y0024835D01*
X0115012Y0018137D02*
X0114230Y0020170D01*
X0111080Y0024835D02*
X0110829Y0024835D01*
X0100445Y0018137D02*
X0098477Y0016169D01*
X0092729Y0016169D01*
X0100445Y0009082D02*
X0103826Y0009082D01*
X0177857Y0012035D02*
X0177857Y0019732D01*
D24*
X0160140Y0012035D02*
X0155662Y0012035D01*
X0149722Y0017975D01*
X0149722Y0022882D01*
X0150229Y0023388D01*
X0139485Y0017975D02*
X0134604Y0017975D01*
X0134604Y0011735D01*
X0135854Y0010485D01*
X0139475Y0010485D01*
X0139485Y0010495D01*
X0130229Y0010263D02*
X0129441Y0011051D01*
X0125854Y0011051D01*
X0125854Y0014235D01*
X0122104Y0016169D02*
X0116981Y0016169D01*
X0115012Y0018137D01*
X0114230Y0020170D02*
X0114230Y0024835D01*
X0117379Y0024835D02*
X0117379Y0031385D01*
X0120529Y0028910D02*
X0122104Y0030485D01*
X0122104Y0035086D01*
X0122104Y0051110D01*
X0117104Y0046110D02*
X0111080Y0052133D01*
X0111080Y0058635D01*
X0110445Y0059270D01*
X0110445Y0066110D01*
X0108216Y0068339D01*
X0102315Y0068339D01*
X0115012Y0066110D02*
X0119604Y0066110D01*
X0133127Y0062758D02*
X0137729Y0067360D01*
X0143979Y0067360D01*
X0147104Y0064235D01*
X0147104Y0046735D01*
X0139004Y0049609D02*
X0134978Y0049609D01*
X0133354Y0047985D01*
X0133354Y0042985D01*
X0112104Y0043310D02*
X0105204Y0043310D01*
X0101804Y0040160D02*
X0099604Y0042360D01*
X0096700Y0042360D01*
X0101804Y0040160D02*
X0105204Y0040160D01*
X0105204Y0037010D02*
X0101754Y0037010D01*
X0099604Y0034860D01*
X0096700Y0034860D01*
X0090007Y0034860D02*
X0081615Y0034860D01*
X0080928Y0034173D01*
X0081615Y0042360D02*
X0080928Y0043047D01*
X0081615Y0042360D02*
X0090007Y0042360D01*
X0096700Y0050263D02*
X0100504Y0046459D01*
X0105204Y0046459D01*
X0096700Y0050263D02*
X0096700Y0052360D01*
X0090007Y0052360D02*
X0090007Y0060765D01*
X0088142Y0062630D01*
X0086228Y0052389D02*
X0080928Y0052389D01*
X0086228Y0052389D02*
X0090007Y0052360D01*
X0133127Y0058635D02*
X0133127Y0062758D01*
X0139004Y0059260D02*
X0142104Y0062360D01*
X0139004Y0059260D02*
X0139004Y0052758D01*
X0122104Y0035086D02*
X0114830Y0035086D01*
X0110455Y0030711D01*
X0105204Y0030711D01*
X0102330Y0030711D01*
X0096479Y0024860D01*
X0080957Y0024860D01*
X0080928Y0024830D01*
X0092719Y0024850D02*
X0096479Y0024860D01*
X0092729Y0020485D02*
X0092729Y0016169D01*
X0092729Y0011051D02*
X0094697Y0009082D01*
X0100445Y0009082D01*
X0103826Y0009082D02*
X0107729Y0012985D01*
X0107729Y0021735D01*
X0110829Y0024835D01*
X0120529Y0024835D02*
X0120529Y0021435D01*
X0122104Y0019860D01*
X0127325Y0019860D01*
X0130229Y0016956D01*
X0131247Y0017975D01*
X0134604Y0017975D01*
X0139485Y0014235D02*
X0144604Y0014235D01*
X0125854Y0011051D02*
X0122104Y0011051D01*
X0116981Y0011051D01*
X0115012Y0009082D01*
X0120529Y0024835D02*
X0120529Y0028910D01*
X0105204Y0030711D02*
X0105204Y0033861D01*
X0150229Y0030081D02*
X0156257Y0030081D01*
D25*
X0156257Y0030081D03*
X0177857Y0019732D03*
X0144604Y0014235D03*
X0125854Y0014235D03*
X0092729Y0020485D03*
X0117379Y0031385D03*
X0133354Y0042985D03*
X0147104Y0046735D03*
X0122104Y0051110D03*
X0117104Y0046110D03*
X0112104Y0043310D03*
X0142104Y0062360D03*
X0119604Y0066110D03*
X0177729Y0046735D03*
X0189604Y0043610D03*
X0179904Y0042035D03*
X0201479Y0048610D03*
D26*
X0097379Y0043610D02*
X0096700Y0042360D01*
M02*
