G75*
%MOIN*%
%OFA0B0*%
%FSLAX25Y25*%
%IPPOS*%
%LPD*%
%AMOC8*
5,1,8,0,0,1.08239X$1,22.5*
%
%ADD10C,0.08200*%
%ADD11C,0.13461*%
%ADD12C,0.05131*%
%ADD13R,0.05131X0.10249*%
%ADD14R,0.03000X0.05800*%
%ADD15R,0.05800X0.03000*%
%ADD16R,0.08280X0.05131*%
%ADD17R,0.05131X0.04737*%
%ADD18R,0.04343X0.03556*%
%ADD19R,0.05524X0.02965*%
%ADD20R,0.04737X0.05131*%
%ADD21R,0.04146X0.04343*%
%ADD22R,0.06312X0.04934*%
%ADD23C,0.03556*%
D10*
X0080928Y0024830D03*
X0080928Y0034173D03*
X0080928Y0043047D03*
X0080928Y0052389D03*
D11*
X0071479Y0015775D03*
X0071479Y0061444D03*
D12*
X0071085Y0047468D03*
X0071085Y0029751D03*
D13*
X0160140Y0012035D03*
X0166046Y0012035D03*
X0171951Y0012035D03*
X0177857Y0012035D03*
X0183762Y0012035D03*
X0189668Y0012035D03*
X0195573Y0012035D03*
X0201479Y0012035D03*
X0201479Y0065185D03*
X0195573Y0065185D03*
X0189668Y0065185D03*
X0183762Y0065185D03*
X0177857Y0065185D03*
X0171951Y0065185D03*
X0166046Y0065185D03*
X0160140Y0065185D03*
D14*
X0133127Y0058635D03*
X0129978Y0058635D03*
X0126828Y0058635D03*
X0123679Y0058635D03*
X0120529Y0058635D03*
X0117379Y0058635D03*
X0114230Y0058635D03*
X0111080Y0058635D03*
X0111080Y0024835D03*
X0114230Y0024835D03*
X0117379Y0024835D03*
X0120529Y0024835D03*
X0123679Y0024835D03*
X0126828Y0024835D03*
X0129978Y0024835D03*
X0133127Y0024835D03*
D15*
X0139004Y0030711D03*
X0139004Y0033861D03*
X0139004Y0037010D03*
X0139004Y0040160D03*
X0139004Y0043310D03*
X0139004Y0046459D03*
X0139004Y0049609D03*
X0139004Y0052758D03*
X0105204Y0052758D03*
X0105204Y0049609D03*
X0105204Y0046459D03*
X0105204Y0043310D03*
X0105204Y0040160D03*
X0105204Y0037010D03*
X0105204Y0033861D03*
X0105204Y0030711D03*
D16*
X0100445Y0018137D03*
X0115012Y0018137D03*
X0115012Y0009082D03*
X0100445Y0009082D03*
D17*
X0096700Y0034860D03*
X0090007Y0034860D03*
X0090007Y0042360D03*
X0096700Y0042360D03*
X0096700Y0052360D03*
X0090007Y0052360D03*
D18*
X0092729Y0016169D03*
X0092729Y0011051D03*
X0122104Y0011051D03*
X0122104Y0016169D03*
D19*
X0139485Y0017975D03*
X0149722Y0017975D03*
X0139485Y0014235D03*
X0139485Y0010495D03*
X0149722Y0010495D03*
D20*
X0130229Y0010263D03*
X0130229Y0016956D03*
X0150229Y0023388D03*
X0150229Y0030081D03*
D21*
X0115012Y0066110D03*
X0110445Y0066110D03*
D22*
X0102315Y0068339D03*
X0088142Y0068339D03*
X0088142Y0062630D03*
X0102315Y0062630D03*
D23*
X0095229Y0061941D03*
X0095229Y0069028D03*
M02*
