G75*
%MOIN*%
%OFA0B0*%
%FSLAX25Y25*%
%IPPOS*%
%LPD*%
%AMOC8*
5,1,8,0,0,1.08239X$1,22.5*
%
%ADD10C,0.07400*%
%ADD11C,0.12661*%
%ADD12R,0.03937X0.12480*%
%ADD13C,0.01600*%
%ADD14C,0.02800*%
%ADD15C,0.02400*%
D10*
X0080928Y0024830D03*
X0080928Y0034173D03*
X0080928Y0043047D03*
X0080928Y0052389D03*
D11*
X0071479Y0061444D03*
X0071479Y0015775D03*
D12*
X0132104Y0031735D03*
X0142104Y0031735D03*
X0152104Y0031735D03*
X0152104Y0051735D03*
X0142104Y0051735D03*
X0132104Y0051735D03*
D13*
X0060485Y0012264D02*
X0061316Y0009705D01*
X0062898Y0007529D01*
X0065074Y0005947D01*
X0067633Y0005116D01*
X0068979Y0005010D01*
X0203979Y0005010D01*
X0203979Y0047329D01*
X0203852Y0047024D01*
X0203065Y0046236D01*
X0202036Y0045810D01*
X0201790Y0045810D01*
X0200515Y0044535D01*
X0192251Y0044535D01*
X0192404Y0044167D01*
X0192404Y0043053D01*
X0191977Y0042024D01*
X0191190Y0041236D01*
X0190161Y0040810D01*
X0189915Y0040810D01*
X0188940Y0039835D01*
X0181664Y0039835D01*
X0181490Y0039661D01*
X0180461Y0039235D01*
X0179347Y0039235D01*
X0178318Y0039661D01*
X0177530Y0040449D01*
X0177104Y0041478D01*
X0177104Y0042592D01*
X0177530Y0043621D01*
X0177844Y0043935D01*
X0177172Y0043935D01*
X0176143Y0044361D01*
X0175355Y0045149D01*
X0174929Y0046178D01*
X0174929Y0047292D01*
X0175355Y0048321D01*
X0176143Y0049108D01*
X0177172Y0049535D01*
X0178286Y0049535D01*
X0179315Y0049108D01*
X0179489Y0048935D01*
X0198679Y0048935D01*
X0198679Y0049167D01*
X0199105Y0050196D01*
X0199893Y0050983D01*
X0200922Y0051410D01*
X0202036Y0051410D01*
X0203065Y0050983D01*
X0203852Y0050196D01*
X0203979Y0049891D01*
X0203979Y0072210D01*
X0068979Y0072210D01*
X0067633Y0072104D01*
X0065074Y0071272D01*
X0062898Y0069691D01*
X0061316Y0067514D01*
X0060485Y0064955D01*
X0060379Y0063610D01*
X0060379Y0013610D01*
X0060485Y0012264D01*
X0060700Y0011602D02*
X0064840Y0011602D01*
X0064925Y0011396D02*
X0067100Y0009221D01*
X0069941Y0008044D01*
X0073016Y0008044D01*
X0075858Y0009221D01*
X0078033Y0011396D01*
X0079209Y0014237D01*
X0079209Y0017313D01*
X0078033Y0020154D01*
X0075858Y0022329D01*
X0073016Y0023506D01*
X0069941Y0023506D01*
X0067100Y0022329D01*
X0064925Y0020154D01*
X0063748Y0017313D01*
X0063748Y0014237D01*
X0064925Y0011396D01*
X0064177Y0013201D02*
X0060411Y0013201D01*
X0060379Y0014799D02*
X0063748Y0014799D01*
X0063748Y0016398D02*
X0060379Y0016398D01*
X0060379Y0017996D02*
X0064031Y0017996D01*
X0064693Y0019595D02*
X0060379Y0019595D01*
X0060379Y0021193D02*
X0065964Y0021193D01*
X0068217Y0022792D02*
X0060379Y0022792D01*
X0060379Y0024390D02*
X0075828Y0024390D01*
X0075828Y0023816D02*
X0076604Y0021941D01*
X0078039Y0020507D01*
X0079913Y0019730D01*
X0081942Y0019730D01*
X0083816Y0020507D01*
X0085251Y0021941D01*
X0086028Y0023816D01*
X0086028Y0025845D01*
X0085251Y0027719D01*
X0083816Y0029154D01*
X0082977Y0029501D01*
X0083816Y0029849D01*
X0085251Y0031284D01*
X0086028Y0033158D01*
X0086028Y0035187D01*
X0085251Y0037062D01*
X0083816Y0038496D01*
X0083543Y0038610D01*
X0083816Y0038723D01*
X0085251Y0040158D01*
X0086028Y0042032D01*
X0086028Y0044061D01*
X0085251Y0045936D01*
X0083816Y0047370D01*
X0083472Y0047513D01*
X0083810Y0047685D01*
X0084511Y0048194D01*
X0085123Y0048806D01*
X0085632Y0049507D01*
X0086025Y0050278D01*
X0086292Y0051101D01*
X0086428Y0051956D01*
X0086428Y0052289D01*
X0081028Y0052289D01*
X0081028Y0052489D01*
X0086428Y0052489D01*
X0086428Y0052822D01*
X0086292Y0053677D01*
X0086025Y0054501D01*
X0085632Y0055272D01*
X0085123Y0055972D01*
X0084511Y0056584D01*
X0083810Y0057093D01*
X0083039Y0057486D01*
X0082215Y0057754D01*
X0081360Y0057889D01*
X0081028Y0057889D01*
X0081028Y0052489D01*
X0080828Y0052489D01*
X0080828Y0057889D01*
X0080495Y0057889D01*
X0079640Y0057754D01*
X0078816Y0057486D01*
X0078045Y0057093D01*
X0078044Y0057092D01*
X0079209Y0059907D01*
X0079209Y0062982D01*
X0078033Y0065823D01*
X0075858Y0067998D01*
X0073016Y0069175D01*
X0069941Y0069175D01*
X0067100Y0067998D01*
X0064925Y0065823D01*
X0063748Y0062982D01*
X0063748Y0059907D01*
X0064925Y0057065D01*
X0067100Y0054891D01*
X0069941Y0053714D01*
X0073016Y0053714D01*
X0075858Y0054891D01*
X0076207Y0055240D01*
X0075831Y0054501D01*
X0075563Y0053677D01*
X0075428Y0052822D01*
X0075428Y0052489D01*
X0080827Y0052489D01*
X0080827Y0052289D01*
X0075428Y0052289D01*
X0075428Y0051956D01*
X0075563Y0051101D01*
X0075831Y0050278D01*
X0076224Y0049507D01*
X0076732Y0048806D01*
X0077345Y0048194D01*
X0078045Y0047685D01*
X0078383Y0047513D01*
X0078039Y0047370D01*
X0076604Y0045936D01*
X0075828Y0044061D01*
X0075828Y0042032D01*
X0076604Y0040158D01*
X0078039Y0038723D01*
X0078313Y0038610D01*
X0078039Y0038496D01*
X0076604Y0037062D01*
X0075828Y0035187D01*
X0075828Y0033158D01*
X0076604Y0031284D01*
X0078039Y0029849D01*
X0078878Y0029501D01*
X0078039Y0029154D01*
X0076604Y0027719D01*
X0075828Y0025845D01*
X0075828Y0023816D01*
X0076252Y0022792D02*
X0074740Y0022792D01*
X0076993Y0021193D02*
X0077352Y0021193D01*
X0078264Y0019595D02*
X0203979Y0019595D01*
X0203979Y0021193D02*
X0084503Y0021193D01*
X0085603Y0022792D02*
X0203979Y0022792D01*
X0203979Y0024390D02*
X0154948Y0024390D01*
X0154652Y0024095D02*
X0155472Y0024915D01*
X0155472Y0038555D01*
X0154652Y0039375D01*
X0149704Y0039375D01*
X0149704Y0044095D01*
X0154652Y0044095D01*
X0155472Y0044915D01*
X0155472Y0058555D01*
X0154652Y0059375D01*
X0149555Y0059375D01*
X0148735Y0058555D01*
X0148735Y0049063D01*
X0148690Y0049108D01*
X0147661Y0049535D01*
X0146547Y0049535D01*
X0145518Y0049108D01*
X0145472Y0049063D01*
X0145472Y0058555D01*
X0144704Y0059323D01*
X0144704Y0061320D01*
X0144904Y0061803D01*
X0144904Y0062917D01*
X0144477Y0063946D01*
X0143690Y0064733D01*
X0142661Y0065160D01*
X0141547Y0065160D01*
X0140518Y0064733D01*
X0139730Y0063946D01*
X0139304Y0062917D01*
X0139304Y0061803D01*
X0139504Y0061320D01*
X0139504Y0059323D01*
X0138735Y0058555D01*
X0138735Y0044915D01*
X0139555Y0044095D01*
X0144504Y0044095D01*
X0144504Y0039375D01*
X0142516Y0039375D01*
X0140452Y0041439D01*
X0139496Y0041835D01*
X0138181Y0041835D01*
X0135927Y0044088D01*
X0135727Y0044571D01*
X0135658Y0044641D01*
X0135750Y0044800D01*
X0135872Y0045258D01*
X0135872Y0051550D01*
X0132288Y0051550D01*
X0132288Y0051919D01*
X0131919Y0051919D01*
X0131919Y0051550D01*
X0128335Y0051550D01*
X0128335Y0045258D01*
X0128458Y0044800D01*
X0128695Y0044389D01*
X0129030Y0044054D01*
X0129440Y0043817D01*
X0129898Y0043695D01*
X0130617Y0043695D01*
X0130554Y0043542D01*
X0130554Y0042428D01*
X0130980Y0041399D01*
X0131768Y0040611D01*
X0132251Y0040411D01*
X0133287Y0039375D01*
X0129555Y0039375D01*
X0128735Y0038555D01*
X0128735Y0034335D01*
X0123806Y0034335D01*
X0119704Y0038437D01*
X0119704Y0045070D01*
X0119904Y0045553D01*
X0119904Y0046667D01*
X0119477Y0047696D01*
X0118690Y0048483D01*
X0117661Y0048910D01*
X0116547Y0048910D01*
X0115518Y0048483D01*
X0114730Y0047696D01*
X0114304Y0046667D01*
X0114304Y0045553D01*
X0114504Y0045070D01*
X0114504Y0036843D01*
X0114900Y0035887D01*
X0120525Y0030262D01*
X0121256Y0029531D01*
X0122212Y0029135D01*
X0128735Y0029135D01*
X0128735Y0024915D01*
X0129555Y0024095D01*
X0134652Y0024095D01*
X0135472Y0024915D01*
X0135472Y0037189D01*
X0135631Y0037031D01*
X0136587Y0036635D01*
X0137902Y0036635D01*
X0138735Y0035801D01*
X0138735Y0024915D01*
X0139555Y0024095D01*
X0144652Y0024095D01*
X0145472Y0024915D01*
X0145472Y0034689D01*
X0148735Y0031426D01*
X0148735Y0024915D01*
X0149555Y0024095D01*
X0154652Y0024095D01*
X0149260Y0024390D02*
X0144948Y0024390D01*
X0145472Y0025989D02*
X0148735Y0025989D01*
X0148735Y0027587D02*
X0145472Y0027587D01*
X0145472Y0029186D02*
X0148735Y0029186D01*
X0148735Y0030784D02*
X0145472Y0030784D01*
X0145472Y0032383D02*
X0147779Y0032383D01*
X0146180Y0033981D02*
X0145472Y0033981D01*
X0138735Y0033981D02*
X0135472Y0033981D01*
X0135472Y0032383D02*
X0138735Y0032383D01*
X0138735Y0030784D02*
X0135472Y0030784D01*
X0135472Y0029186D02*
X0138735Y0029186D01*
X0138735Y0027587D02*
X0135472Y0027587D01*
X0135472Y0025989D02*
X0138735Y0025989D01*
X0139260Y0024390D02*
X0134948Y0024390D01*
X0129260Y0024390D02*
X0086028Y0024390D01*
X0085968Y0025989D02*
X0128735Y0025989D01*
X0128735Y0027587D02*
X0085306Y0027587D01*
X0083739Y0029186D02*
X0122088Y0029186D01*
X0120002Y0030784D02*
X0084752Y0030784D01*
X0085706Y0032383D02*
X0118404Y0032383D01*
X0116805Y0033981D02*
X0086028Y0033981D01*
X0085865Y0035580D02*
X0115207Y0035580D01*
X0114504Y0037178D02*
X0085134Y0037178D01*
X0083870Y0038777D02*
X0114504Y0038777D01*
X0114504Y0040375D02*
X0085341Y0040375D01*
X0086003Y0041974D02*
X0114504Y0041974D01*
X0114504Y0043573D02*
X0086028Y0043573D01*
X0085568Y0045171D02*
X0114462Y0045171D01*
X0114346Y0046770D02*
X0084417Y0046770D01*
X0084685Y0048368D02*
X0115402Y0048368D01*
X0118805Y0048368D02*
X0121406Y0048368D01*
X0121547Y0048310D02*
X0122661Y0048310D01*
X0123690Y0048736D01*
X0124477Y0049524D01*
X0124904Y0050553D01*
X0124904Y0051667D01*
X0124704Y0052150D01*
X0124704Y0064127D01*
X0124308Y0065082D01*
X0123577Y0065814D01*
X0123577Y0065814D01*
X0122177Y0067213D01*
X0121977Y0067696D01*
X0121190Y0068483D01*
X0120161Y0068910D01*
X0119047Y0068910D01*
X0118018Y0068483D01*
X0117230Y0067696D01*
X0116804Y0066667D01*
X0116804Y0065553D01*
X0117230Y0064524D01*
X0118018Y0063736D01*
X0118501Y0063536D01*
X0119504Y0062533D01*
X0119504Y0052150D01*
X0119304Y0051667D01*
X0119304Y0050553D01*
X0119730Y0049524D01*
X0120518Y0048736D01*
X0121547Y0048310D01*
X0122801Y0048368D02*
X0128335Y0048368D01*
X0128335Y0046770D02*
X0119861Y0046770D01*
X0119746Y0045171D02*
X0128358Y0045171D01*
X0130567Y0043573D02*
X0119704Y0043573D01*
X0119704Y0041974D02*
X0130742Y0041974D01*
X0132286Y0040375D02*
X0119704Y0040375D01*
X0119704Y0038777D02*
X0128957Y0038777D01*
X0128735Y0037178D02*
X0120962Y0037178D01*
X0122560Y0035580D02*
X0128735Y0035580D01*
X0135472Y0035580D02*
X0138735Y0035580D01*
X0135483Y0037178D02*
X0135472Y0037178D01*
X0141515Y0040375D02*
X0144504Y0040375D01*
X0144504Y0041974D02*
X0138041Y0041974D01*
X0136443Y0043573D02*
X0144504Y0043573D01*
X0149704Y0043573D02*
X0177510Y0043573D01*
X0177104Y0041974D02*
X0149704Y0041974D01*
X0149704Y0040375D02*
X0177604Y0040375D01*
X0179904Y0042035D02*
X0188029Y0042035D01*
X0189604Y0043610D01*
X0192404Y0043573D02*
X0203979Y0043573D01*
X0203979Y0045171D02*
X0201151Y0045171D01*
X0199604Y0046735D02*
X0201479Y0048610D01*
X0203947Y0049967D02*
X0203979Y0049967D01*
X0199010Y0049967D02*
X0155472Y0049967D01*
X0155472Y0048368D02*
X0175402Y0048368D01*
X0174929Y0046770D02*
X0155472Y0046770D01*
X0155472Y0045171D02*
X0175346Y0045171D01*
X0177729Y0046735D02*
X0199604Y0046735D01*
X0203598Y0046770D02*
X0203979Y0046770D01*
X0203979Y0041974D02*
X0191928Y0041974D01*
X0189481Y0040375D02*
X0203979Y0040375D01*
X0203979Y0038777D02*
X0155250Y0038777D01*
X0155472Y0037178D02*
X0203979Y0037178D01*
X0203979Y0035580D02*
X0155472Y0035580D01*
X0155472Y0033981D02*
X0203979Y0033981D01*
X0203979Y0032383D02*
X0155472Y0032383D01*
X0155472Y0030784D02*
X0203979Y0030784D01*
X0203979Y0029186D02*
X0155472Y0029186D01*
X0155472Y0027587D02*
X0203979Y0027587D01*
X0203979Y0025989D02*
X0155472Y0025989D01*
X0203979Y0017996D02*
X0078926Y0017996D01*
X0079209Y0016398D02*
X0203979Y0016398D01*
X0203979Y0014799D02*
X0079209Y0014799D01*
X0078780Y0013201D02*
X0203979Y0013201D01*
X0203979Y0011602D02*
X0078118Y0011602D01*
X0076640Y0010004D02*
X0203979Y0010004D01*
X0203979Y0008405D02*
X0073888Y0008405D01*
X0069070Y0008405D02*
X0062261Y0008405D01*
X0061219Y0010004D02*
X0066317Y0010004D01*
X0063891Y0006807D02*
X0203979Y0006807D01*
X0203979Y0005208D02*
X0067348Y0005208D01*
X0070376Y0026186D02*
X0071794Y0026186D01*
X0073105Y0026729D01*
X0074108Y0027732D01*
X0074650Y0029042D01*
X0074650Y0030461D01*
X0074108Y0031771D01*
X0073105Y0032774D01*
X0071794Y0033317D01*
X0070376Y0033317D01*
X0069065Y0032774D01*
X0068062Y0031771D01*
X0067520Y0030461D01*
X0067520Y0029042D01*
X0068062Y0027732D01*
X0069065Y0026729D01*
X0070376Y0026186D01*
X0068207Y0027587D02*
X0060379Y0027587D01*
X0060379Y0025989D02*
X0075887Y0025989D01*
X0076549Y0027587D02*
X0073963Y0027587D01*
X0074650Y0029186D02*
X0078116Y0029186D01*
X0077103Y0030784D02*
X0074516Y0030784D01*
X0073496Y0032383D02*
X0076149Y0032383D01*
X0075828Y0033981D02*
X0060379Y0033981D01*
X0060379Y0032383D02*
X0068674Y0032383D01*
X0067654Y0030784D02*
X0060379Y0030784D01*
X0060379Y0029186D02*
X0067520Y0029186D01*
X0060379Y0035580D02*
X0075990Y0035580D01*
X0076721Y0037178D02*
X0060379Y0037178D01*
X0060379Y0038777D02*
X0077985Y0038777D01*
X0076514Y0040375D02*
X0060379Y0040375D01*
X0060379Y0041974D02*
X0075852Y0041974D01*
X0075828Y0043573D02*
X0060379Y0043573D01*
X0060379Y0045171D02*
X0068340Y0045171D01*
X0068062Y0045448D02*
X0069065Y0044445D01*
X0070376Y0043903D01*
X0071794Y0043903D01*
X0073105Y0044445D01*
X0074108Y0045448D01*
X0074650Y0046759D01*
X0074650Y0048177D01*
X0074108Y0049488D01*
X0073105Y0050491D01*
X0071794Y0051033D01*
X0070376Y0051033D01*
X0069065Y0050491D01*
X0068062Y0049488D01*
X0067520Y0048177D01*
X0067520Y0046759D01*
X0068062Y0045448D01*
X0067520Y0046770D02*
X0060379Y0046770D01*
X0060379Y0048368D02*
X0067599Y0048368D01*
X0068541Y0049967D02*
X0060379Y0049967D01*
X0060379Y0051565D02*
X0075490Y0051565D01*
X0075482Y0053164D02*
X0060379Y0053164D01*
X0060379Y0054762D02*
X0067410Y0054762D01*
X0065630Y0056361D02*
X0060379Y0056361D01*
X0060379Y0057959D02*
X0064555Y0057959D01*
X0063893Y0059558D02*
X0060379Y0059558D01*
X0060379Y0061156D02*
X0063748Y0061156D01*
X0063748Y0062755D02*
X0060379Y0062755D01*
X0060437Y0064353D02*
X0064316Y0064353D01*
X0065053Y0065952D02*
X0060808Y0065952D01*
X0061342Y0067550D02*
X0066652Y0067550D01*
X0069877Y0069149D02*
X0062504Y0069149D01*
X0064352Y0070747D02*
X0093019Y0070747D01*
X0092874Y0070602D02*
X0092451Y0069581D01*
X0092451Y0068475D01*
X0092874Y0067454D01*
X0093655Y0066673D01*
X0094676Y0066250D01*
X0095781Y0066250D01*
X0096802Y0066673D01*
X0097584Y0067454D01*
X0098007Y0068475D01*
X0098007Y0069581D01*
X0097584Y0070602D01*
X0096802Y0071383D01*
X0095781Y0071806D01*
X0094676Y0071806D01*
X0093655Y0071383D01*
X0092874Y0070602D01*
X0092451Y0069149D02*
X0073080Y0069149D01*
X0076306Y0067550D02*
X0092834Y0067550D01*
X0097623Y0067550D02*
X0117170Y0067550D01*
X0116804Y0065952D02*
X0077904Y0065952D01*
X0078642Y0064353D02*
X0093792Y0064353D01*
X0093655Y0064296D02*
X0092874Y0063515D01*
X0092451Y0062494D01*
X0092451Y0061389D01*
X0092874Y0060368D01*
X0093655Y0059586D01*
X0094676Y0059163D01*
X0095781Y0059163D01*
X0096802Y0059586D01*
X0097584Y0060368D01*
X0098007Y0061389D01*
X0098007Y0062494D01*
X0097584Y0063515D01*
X0096802Y0064296D01*
X0095781Y0064719D01*
X0094676Y0064719D01*
X0093655Y0064296D01*
X0096665Y0064353D02*
X0117401Y0064353D01*
X0119282Y0062755D02*
X0097899Y0062755D01*
X0097910Y0061156D02*
X0119504Y0061156D01*
X0119504Y0059558D02*
X0096733Y0059558D01*
X0093725Y0059558D02*
X0079065Y0059558D01*
X0079209Y0061156D02*
X0092547Y0061156D01*
X0092559Y0062755D02*
X0079209Y0062755D01*
X0078403Y0057959D02*
X0119504Y0057959D01*
X0119504Y0056361D02*
X0084734Y0056361D01*
X0085891Y0054762D02*
X0119504Y0054762D01*
X0119504Y0053164D02*
X0086373Y0053164D01*
X0086366Y0051565D02*
X0119304Y0051565D01*
X0124904Y0051565D02*
X0131919Y0051565D01*
X0131919Y0051919D02*
X0128335Y0051919D01*
X0128335Y0058212D01*
X0128458Y0058670D01*
X0128695Y0059080D01*
X0129030Y0059415D01*
X0129440Y0059652D01*
X0129898Y0059775D01*
X0131919Y0059775D01*
X0131919Y0051919D01*
X0132288Y0051919D02*
X0132288Y0059775D01*
X0134309Y0059775D01*
X0134767Y0059652D01*
X0135177Y0059415D01*
X0135513Y0059080D01*
X0135750Y0058670D01*
X0135872Y0058212D01*
X0135872Y0051919D01*
X0132288Y0051919D01*
X0132288Y0051565D02*
X0138735Y0051565D01*
X0138735Y0053164D02*
X0135872Y0053164D01*
X0132288Y0053164D02*
X0131919Y0053164D01*
X0128335Y0053164D02*
X0124704Y0053164D01*
X0124704Y0054762D02*
X0128335Y0054762D01*
X0131919Y0054762D02*
X0132288Y0054762D01*
X0135872Y0054762D02*
X0138735Y0054762D01*
X0138735Y0056361D02*
X0135872Y0056361D01*
X0132288Y0056361D02*
X0131919Y0056361D01*
X0128335Y0056361D02*
X0124704Y0056361D01*
X0124704Y0057959D02*
X0128335Y0057959D01*
X0131919Y0057959D02*
X0132288Y0057959D01*
X0135872Y0057959D02*
X0138735Y0057959D01*
X0139504Y0059558D02*
X0134931Y0059558D01*
X0132288Y0059558D02*
X0131919Y0059558D01*
X0129277Y0059558D02*
X0124704Y0059558D01*
X0124704Y0061156D02*
X0139504Y0061156D01*
X0139304Y0062755D02*
X0124704Y0062755D01*
X0124610Y0064353D02*
X0140137Y0064353D01*
X0144070Y0064353D02*
X0203979Y0064353D01*
X0203979Y0062755D02*
X0144904Y0062755D01*
X0144704Y0061156D02*
X0203979Y0061156D01*
X0203979Y0059558D02*
X0144704Y0059558D01*
X0145472Y0057959D02*
X0148735Y0057959D01*
X0148735Y0056361D02*
X0145472Y0056361D01*
X0145472Y0054762D02*
X0148735Y0054762D01*
X0148735Y0053164D02*
X0145472Y0053164D01*
X0145472Y0051565D02*
X0148735Y0051565D01*
X0148735Y0049967D02*
X0145472Y0049967D01*
X0138735Y0049967D02*
X0135872Y0049967D01*
X0135872Y0048368D02*
X0138735Y0048368D01*
X0138735Y0046770D02*
X0135872Y0046770D01*
X0135849Y0045171D02*
X0138735Y0045171D01*
X0128335Y0049967D02*
X0124661Y0049967D01*
X0119547Y0049967D02*
X0085866Y0049967D01*
X0077171Y0048368D02*
X0074571Y0048368D01*
X0074650Y0046770D02*
X0077438Y0046770D01*
X0076287Y0045171D02*
X0073830Y0045171D01*
X0073629Y0049967D02*
X0075989Y0049967D01*
X0080828Y0053164D02*
X0081028Y0053164D01*
X0081028Y0054762D02*
X0080828Y0054762D01*
X0080828Y0056361D02*
X0081028Y0056361D01*
X0075964Y0054762D02*
X0075548Y0054762D01*
X0098007Y0069149D02*
X0203979Y0069149D01*
X0203979Y0070747D02*
X0097438Y0070747D01*
X0122038Y0067550D02*
X0203979Y0067550D01*
X0203979Y0065952D02*
X0123439Y0065952D01*
X0155472Y0057959D02*
X0203979Y0057959D01*
X0203979Y0056361D02*
X0155472Y0056361D01*
X0155472Y0054762D02*
X0203979Y0054762D01*
X0203979Y0053164D02*
X0155472Y0053164D01*
X0155472Y0051565D02*
X0203979Y0051565D01*
D14*
X0201479Y0048610D03*
X0189604Y0043610D03*
X0179904Y0042035D03*
X0177729Y0046735D03*
X0147104Y0046735D03*
X0133354Y0042985D03*
X0117104Y0046110D03*
X0112104Y0043310D03*
X0122104Y0051110D03*
X0142104Y0062360D03*
X0119604Y0066110D03*
X0117379Y0031385D03*
X0092729Y0020485D03*
X0125854Y0014235D03*
X0144604Y0014235D03*
X0177857Y0019732D03*
X0156257Y0030081D03*
D15*
X0152104Y0031735D02*
X0147104Y0036735D01*
X0147104Y0046735D01*
X0137104Y0039235D02*
X0133354Y0042985D01*
X0137104Y0039235D02*
X0138979Y0039235D01*
X0142104Y0036110D01*
X0142104Y0031735D01*
X0132104Y0031735D02*
X0122729Y0031735D01*
X0117104Y0037360D01*
X0117104Y0046110D01*
X0122104Y0051110D02*
X0122104Y0063610D01*
X0119604Y0066110D01*
X0142104Y0062360D02*
X0142104Y0051735D01*
M02*
