%
M48
M72
T01C0.01200
T02C0.02756
T03C0.03600
T04C0.04331
T05C0.08661
%
T01
X92729Y20485
X117379Y31385
X133354Y42985
X147104Y46735
X122104Y51110
X117104Y46110
X112104Y43310
X156257Y30081
X177857Y19732
X144604Y14235
X125854Y14235
X179904Y42035
X189604Y43610
X177729Y46735
X201479Y48610
X142104Y62360
X119604Y66110
T02
X95229Y69028
X95229Y61941
T03
X80928Y52389
X80928Y43047
X80928Y34173
X80928Y24830
T04
X71085Y29751
X71085Y47468
T05
X71479Y15775
X71479Y61444
M30
